<svg width="60" height="60" viewBox="0 0 60 60" fill="none" xmlns="http://www.w3.org/2000/svg">
<path d="M30 39.375C28.1458 39.375 26.3332 38.8252 24.7915 37.795C23.2498 36.7649 22.0482 35.3007 21.3386 33.5877C20.6291 31.8746 20.4434 29.9896 20.8051 28.171C21.1669 26.3525 22.0598 24.682 23.3709 23.3709C24.682 22.0598 26.3525 21.1669 28.171 20.8051C29.9896 20.4434 31.8746 20.6291 33.5877 21.3386C35.3007 22.0482 36.7649 23.2498 37.795 24.7915C38.8252 26.3332 39.375 28.1458 39.375 30C39.375 32.4864 38.3873 34.871 36.6291 36.6291C34.871 38.3873 32.4864 39.375 30 39.375ZM30 23.75C28.7639 23.75 27.5555 24.1166 26.5277 24.8033C25.4999 25.4901 24.6988 26.4662 24.2258 27.6082C23.7527 28.7503 23.6289 30.0069 23.8701 31.2193C24.1113 32.4317 24.7065 33.5453 25.5806 34.4194C26.4547 35.2935 27.5683 35.8888 28.7807 36.1299C29.9931 36.3711 31.2497 36.2473 32.3918 35.7742C33.5338 35.3012 34.5099 34.5001 35.1967 33.4723C35.8834 32.4445 36.25 31.2361 36.25 30C36.25 28.3424 35.5915 26.7527 34.4194 25.5806C33.2473 24.4085 31.6576 23.75 30 23.75Z" fill="#C3073F"/>
<path d="M37.8125 53.4376H22.1875C20.5299 53.4376 18.9402 52.7791 17.7681 51.607C16.596 50.4349 15.9375 48.8452 15.9375 47.1876V43.2032C15.9403 42.8929 16.0354 42.5905 16.2107 42.3345C16.386 42.0785 16.6336 41.8805 16.9219 41.7657L22.6094 39.4844C22.8022 39.399 23.0103 39.3534 23.2211 39.3505C23.432 39.3476 23.6413 39.3874 23.8363 39.4675C24.0314 39.5476 24.2082 39.6664 24.3562 39.8167C24.5041 39.967 24.6201 40.1457 24.6972 40.342C24.7742 40.5383 24.8107 40.7482 24.8045 40.959C24.7983 41.1698 24.7494 41.3771 24.6609 41.5685C24.5724 41.76 24.4461 41.9315 24.2896 42.0728C24.133 42.2141 23.9495 42.3222 23.75 42.3907L19.0625 44.2657V47.1876C19.0625 48.0164 19.3917 48.8112 19.9778 49.3973C20.5638 49.9833 21.3587 50.3126 22.1875 50.3126H37.8125C38.6413 50.3126 39.4362 49.9833 40.0222 49.3973C40.6083 48.8112 40.9375 48.0164 40.9375 47.1876V44.2657L36.25 42.3907C35.8646 42.2374 35.5559 41.9372 35.3918 41.5563C35.2277 41.1753 35.2217 40.7448 35.375 40.3594C35.5283 39.974 35.8285 39.6653 36.2094 39.5012C36.5903 39.3372 37.0209 39.3311 37.4063 39.4844L43.0938 41.7657C43.382 41.8805 43.6296 42.0785 43.8049 42.3345C43.9802 42.5905 44.0753 42.8929 44.0781 43.2032V47.1876C44.0781 48.0096 43.916 48.8236 43.6009 49.5829C43.2858 50.3422 42.824 51.0319 42.242 51.6125C41.66 52.1931 40.9692 52.6531 40.2091 52.9663C39.449 53.2795 38.6346 53.4396 37.8125 53.4376Z" fill="#C3073F"/>
<path d="M19.0625 22.1875C17.5173 22.1875 16.0069 21.7293 14.7221 20.8709C13.4374 20.0124 12.436 18.7923 11.8447 17.3647C11.2534 15.9372 11.0987 14.3663 11.4001 12.8509C11.7016 11.3354 12.4456 9.94333 13.5382 8.85073C14.6308 7.75813 16.0229 7.01407 17.5384 6.71262C19.0538 6.41117 20.6247 6.56589 22.0522 7.15719C23.4798 7.7485 24.6999 8.74985 25.5584 10.0346C26.4168 11.3194 26.875 12.8298 26.875 14.375C26.875 15.401 26.6729 16.4169 26.2803 17.3647C25.8877 18.3126 25.3122 19.1738 24.5868 19.8993C23.8613 20.6247 23.0001 21.2002 22.0522 21.5928C21.1044 21.9854 20.0885 22.1875 19.0625 22.1875ZM19.0625 9.6875C18.1354 9.6875 17.2291 9.96242 16.4583 10.4775C15.6874 10.9926 15.0866 11.7246 14.7318 12.5812C14.377 13.4377 14.2842 14.3802 14.4651 15.2895C14.6459 16.1988 15.0924 17.034 15.7479 17.6896C16.4035 18.3451 17.2387 18.7916 18.148 18.9724C19.0573 19.1533 19.9998 19.0605 20.8563 18.7057C21.7129 18.3509 22.4449 17.7501 22.96 16.9792C23.4751 16.2084 23.75 15.3021 23.75 14.375C23.75 13.1318 23.2561 11.9395 22.3771 11.0604C21.498 10.1814 20.3057 9.6875 19.0625 9.6875Z" fill="#C3073F"/>
<path d="M17.5 35.2968H12.8125C11.1549 35.2968 9.56519 34.6383 8.39308 33.4662C7.22098 32.2941 6.5625 30.7044 6.5625 29.0468V26.3124C6.5622 25.9994 6.65587 25.6936 6.83138 25.4345C7.00689 25.1755 7.25615 24.975 7.54688 24.8593L12.5313 22.9061C12.9108 22.7555 13.3343 22.7594 13.7111 22.9171C14.0878 23.0748 14.3878 23.3737 14.5469 23.7499C14.623 23.9407 14.6607 24.1446 14.6579 24.35C14.6551 24.5555 14.6119 24.7583 14.5306 24.947C14.4493 25.1356 14.3316 25.3064 14.1843 25.4496C14.0369 25.5927 13.8628 25.7054 13.6719 25.7811L9.6875 27.3749V29.0468C9.6875 29.8756 10.0167 30.6704 10.6028 31.2565C11.1888 31.8425 11.9837 32.1718 12.8125 32.1718H17.5C17.9144 32.1718 18.3118 32.3364 18.6049 32.6294C18.8979 32.9224 19.0625 33.3199 19.0625 33.7343C19.0625 34.1487 18.8979 34.5461 18.6049 34.8391C18.3118 35.1321 17.9144 35.2968 17.5 35.2968Z" fill="#C3073F"/>
<path d="M40.9375 22.1875C39.3923 22.1875 37.8819 21.7293 36.5971 20.8709C35.3124 20.0124 34.311 18.7923 33.7197 17.3647C33.1284 15.9372 32.9737 14.3663 33.2751 12.8509C33.5766 11.3354 34.3206 9.94333 35.4132 8.85073C36.5058 7.75813 37.8979 7.01407 39.4134 6.71262C40.9288 6.41117 42.4997 6.56589 43.9272 7.15719C45.3548 7.7485 46.5749 8.74985 47.4334 10.0346C48.2918 11.3194 48.75 12.8298 48.75 14.375C48.75 16.447 47.9269 18.4341 46.4618 19.8993C44.9966 21.3644 43.0095 22.1875 40.9375 22.1875ZM40.9375 9.6875C40.0104 9.6875 39.1041 9.96242 38.3333 10.4775C37.5624 10.9926 36.9616 11.7246 36.6068 12.5812C36.252 13.4377 36.1592 14.3802 36.3401 15.2895C36.5209 16.1988 36.9674 17.034 37.6229 17.6896C38.2785 18.3451 39.1137 18.7916 40.023 18.9724C40.9323 19.1533 41.8748 19.0605 42.7313 18.7057C43.5879 18.3509 44.3199 17.7501 44.835 16.9792C45.3501 16.2084 45.625 15.3021 45.625 14.375C45.625 13.1318 45.1311 11.9395 44.2521 11.0604C43.373 10.1814 42.1807 9.6875 40.9375 9.6875Z" fill="#C3073F"/>
<path d="M47.1875 35.2969H42.5C42.0856 35.2969 41.6882 35.1323 41.3951 34.8393C41.1021 34.5463 40.9375 34.1488 40.9375 33.7344C40.9375 33.32 41.1021 32.9226 41.3951 32.6296C41.6882 32.3366 42.0856 32.1719 42.5 32.1719H47.1875C48.0163 32.1719 48.8112 31.8427 49.3972 31.2566C49.9833 30.6706 50.3125 29.8757 50.3125 29.0469V27.3751L46.3281 25.8126C46.1372 25.7368 45.9631 25.6241 45.8157 25.481C45.6684 25.3378 45.5507 25.167 45.4694 24.9784C45.3881 24.7897 45.3449 24.5869 45.3421 24.3815C45.3393 24.1761 45.377 23.9721 45.4531 23.7813C45.6032 23.3967 45.8995 23.0871 46.2772 22.9202C46.6549 22.7533 47.0833 22.7427 47.4688 22.8907L52.4531 24.8438C52.7439 24.9596 52.9931 25.16 53.1686 25.4191C53.3441 25.6782 53.4378 25.984 53.4375 26.2969V29.0313C53.4396 29.8534 53.2794 30.6678 52.9662 31.4279C52.6531 32.188 52.193 32.8788 51.6125 33.4608C51.0319 34.0428 50.3422 34.5046 49.5829 34.8197C48.8236 35.1348 48.0096 35.2969 47.1875 35.2969Z" fill="#C3073F"/>
</svg>
