<svg width="60" height="60" viewBox="0 0 60 60" fill="none" xmlns="http://www.w3.org/2000/svg">
<g clip-path="url(#clip0_161_1414)">
<path d="M50.325 45.1649L45.75 47.4599L41.49 37.5149H28.5C26.79 37.5149 25.5 36.2249 25.5 34.5149V25.5149C25.5 23.8049 26.79 22.5149 28.5 22.5149C30.21 22.5149 31.5 23.8049 31.5 25.5149V31.5149H42V28.5149H34.5V25.5149C34.5 22.1549 31.86 19.5149 28.5 19.5149C25.14 19.5149 22.5 22.1549 22.5 25.5149V27.0149C15.06 27.0149 9 33.0749 9 40.5149C9 47.9549 15.06 54.0149 22.5 54.0149C28.905 54.0149 34.29 49.5149 35.655 43.5149H32.565C31.275 47.8499 27.255 51.0149 22.5 51.0149C16.71 51.0149 12 46.3049 12 40.5149C12 34.7249 16.71 30.0149 22.5 30.0149V34.5149C22.5 37.8749 25.14 40.5149 28.5 40.5149H39.51L44.25 51.5699L51.675 47.8649L50.34 45.1799L50.325 45.1649Z" fill="#C3073F"/>
<path d="M29.25 18C26.355 18 24 15.645 24 12.75C24 9.855 26.355 7.5 29.25 7.5C32.145 7.5 34.5 9.855 34.5 12.75C34.5 15.645 32.145 18 29.25 18ZM29.25 10.5C28.005 10.5 27 11.505 27 12.75C27 13.995 28.005 15 29.25 15C30.495 15 31.5 13.995 31.5 12.75C31.5 11.505 30.495 10.5 29.25 10.5Z" fill="#C3073F"/>
</g>
<defs>
<clipPath id="clip0_161_1414">
<rect width="48" height="48" fill="white" transform="translate(6 6)"/>
</clipPath>
</defs>
</svg>
