<svg width="60" height="60" viewBox="0 0 60 60" fill="none" xmlns="http://www.w3.org/2000/svg">
<g clip-path="url(#clip0_161_1442)">
<path d="M42.25 49.5938H18.75C16.8023 49.5938 14.9344 48.82 13.5572 47.4428C12.18 46.0656 11.4062 44.1977 11.4062 42.25V21.6875C11.4062 21.298 11.561 20.9244 11.8364 20.6489C12.1119 20.3735 12.4855 20.2188 12.875 20.2188H42.25C44.1977 20.2188 46.0656 20.9925 47.4428 22.3697C48.82 23.7469 49.5938 25.6148 49.5938 27.5625V42.25C49.5938 44.1977 48.82 46.0656 47.4428 47.4428C46.0656 48.82 44.1977 49.5938 42.25 49.5938ZM14.3438 23.1562V42.25C14.3438 43.4186 14.808 44.5394 15.6343 45.3657C16.4606 46.192 17.5814 46.6562 18.75 46.6562H42.25C43.4186 46.6562 44.5394 46.192 45.3657 45.3657C46.192 44.5394 46.6562 43.4186 46.6562 42.25V27.5625C46.6562 26.3939 46.192 25.2731 45.3657 24.4468C44.5394 23.6205 43.4186 23.1562 42.25 23.1562H14.3438Z" fill="#C3073F"/>
<path d="M45.1877 23.1563C44.7981 23.1563 44.4245 23.0015 44.1491 22.7261C43.8737 22.4507 43.7189 22.0771 43.7189 21.6875V17.6485C43.7471 17.134 43.6586 16.6197 43.4603 16.1441C43.2619 15.6686 42.9587 15.2439 42.5733 14.9019C42.227 14.6425 41.8261 14.4653 41.4011 14.3839C40.9761 14.3024 40.5382 14.3189 40.1205 14.4319L15.4895 20.0278C15.1582 20.1025 14.863 20.2896 14.6541 20.5574C14.4452 20.8252 14.3356 21.1571 14.3439 21.4966C14.3439 21.8861 14.1892 22.2597 13.9137 22.5352C13.6383 22.8106 13.2647 22.9653 12.8752 22.9653C12.4856 22.9653 12.112 22.8106 11.8366 22.5352C11.5612 22.2597 11.4064 21.8861 11.4064 21.4966C11.3978 20.4925 11.7324 19.5157 12.3547 18.7277C12.9771 17.9398 13.8499 17.388 14.8286 17.1638L39.4742 11.5678C40.3218 11.3535 41.2073 11.3361 42.0627 11.5168C42.9181 11.6976 43.7208 12.0717 44.4092 12.6107C45.1372 13.2285 45.717 14.0019 46.106 14.8739C46.4949 15.7459 46.683 16.6941 46.6564 17.6485V21.6875C46.6564 22.0771 46.5017 22.4507 46.2262 22.7261C45.9508 23.0015 45.5772 23.1563 45.1877 23.1563Z" fill="#C3073F"/>
<path d="M48.125 40.7812H37.8438C36.2856 40.7812 34.7913 40.1623 33.6895 39.0605C32.5877 37.9587 31.9688 36.4644 31.9688 34.9062C31.9688 33.3481 32.5877 31.8538 33.6895 30.752C34.7913 29.6502 36.2856 29.0313 37.8438 29.0312H48.125C48.5145 29.0312 48.8881 29.186 49.1636 29.4614C49.439 29.7369 49.5938 30.1105 49.5938 30.5V39.3125C49.5938 39.702 49.439 40.0756 49.1636 40.3511C48.8881 40.6265 48.5145 40.7812 48.125 40.7812ZM37.8438 31.9688C37.0647 31.9688 36.3175 32.2782 35.7666 32.8291C35.2157 33.38 34.9062 34.1272 34.9062 34.9062C34.9062 35.6853 35.2157 36.4325 35.7666 36.9834C36.3175 37.5343 37.0647 37.8438 37.8438 37.8438H46.6562V31.9688H37.8438Z" fill="#C3073F"/>
</g>
<defs>
<clipPath id="clip0_161_1442">
<rect width="47" height="47" fill="white" transform="translate(7 7)"/>
</clipPath>
</defs>
</svg>
