<svg width="60" height="60" viewBox="0 0 60 60" fill="none" xmlns="http://www.w3.org/2000/svg">
<g clip-path="url(#clip0_161_1435)">
<path d="M15.5 36.1249V23.9374C15.5 21.6997 16.3889 19.5536 17.9713 17.9712C19.5536 16.3889 21.6997 15.4999 23.9375 15.4999C26.1753 15.4999 28.3214 16.3889 29.9037 17.9712C31.4861 19.5536 32.375 21.6997 32.375 23.9374V37.0624C32.375 38.3056 32.8689 39.4979 33.7479 40.377C34.627 41.2561 35.8193 41.7499 37.0625 41.7499C38.3057 41.7499 39.498 41.2561 40.3771 40.377C41.2561 39.4979 41.75 38.3056 41.75 37.0624V24.5562C40.4985 24.1139 39.4436 23.2433 38.7718 22.0984C38.1001 20.9535 37.8547 19.608 38.0791 18.2997C38.3035 16.9914 38.9832 15.8045 39.9981 14.9489C41.0129 14.0933 42.2976 13.624 43.625 13.624C44.9524 13.624 46.2371 14.0933 47.2519 14.9489C48.2668 15.8045 48.9465 16.9914 49.1709 18.2997C49.3953 19.608 49.1499 20.9535 48.4782 22.0984C47.8064 23.2433 46.7515 24.1139 45.5 24.5562V37.0624C45.5 39.3002 44.611 41.4463 43.0287 43.0287C41.4464 44.611 39.3003 45.4999 37.0625 45.4999C34.8247 45.4999 32.6786 44.611 31.0963 43.0287C29.5139 41.4463 28.625 39.3002 28.625 37.0624V23.9374C28.625 22.6942 28.1311 21.502 27.2521 20.6229C26.373 19.7438 25.1807 19.2499 23.9375 19.2499C22.6943 19.2499 21.502 19.7438 20.6229 20.6229C19.7439 21.502 19.25 22.6942 19.25 23.9374V36.1249H24.875L17.375 45.4999L9.875 36.1249H15.5ZM43.625 21.1249C44.1223 21.1249 44.5992 20.9274 44.9508 20.5758C45.3025 20.2241 45.5 19.7472 45.5 19.2499C45.5 18.7527 45.3025 18.2757 44.9508 17.9241C44.5992 17.5725 44.1223 17.3749 43.625 17.3749C43.1277 17.3749 42.6508 17.5725 42.2992 17.9241C41.9475 18.2757 41.75 18.7527 41.75 19.2499C41.75 19.7472 41.9475 20.2241 42.2992 20.5758C42.6508 20.9274 43.1277 21.1249 43.625 21.1249Z" fill="#C3073F"/>
</g>
<defs>
<clipPath id="clip0_161_1435">
<rect width="45" height="45" fill="white" transform="translate(8 8)"/>
</clipPath>
</defs>
</svg>
