<svg width="79" height="20" viewBox="0 0 79 20" fill="none" xmlns="http://www.w3.org/2000/svg">
<g clip-path="url(#clip0_161_1715)">
<mask id="mask0_161_1715" style="mask-type:luminance" maskUnits="userSpaceOnUse" x="0" y="0" width="79" height="20">
<path d="M78.8161 0H0.18457V20H78.8161V0Z" fill="white"/>
</mask>
<g mask="url(#mask0_161_1715)">
<path d="M30.2418 0.470215L23.458 18.1944H27.1037L28.5115 14.4926H35.7141L37.1153 18.1944H40.7333L33.9746 0.470215H30.2418ZM29.7469 11.2397L32.1204 5.0028L34.4805 11.2397H29.7469Z" fill="white"/>
<path d="M72.364 5.51904C71.0882 5.51904 69.8414 5.89725 68.7808 6.60588C67.7203 7.31446 66.894 8.32167 66.4061 9.49999C65.9177 10.6784 65.7903 11.975 66.0387 13.2259C66.2877 14.4769 66.9019 15.626 67.804 16.5278C68.7056 17.4297 69.8545 18.0439 71.1056 18.2928C72.3566 18.5416 73.6535 18.4139 74.8319 17.9258C76.0098 17.4377 77.0172 16.6111 77.7256 15.5506C78.4345 14.4901 78.8124 13.2433 78.8124 11.9679C78.8124 10.2575 78.133 8.61725 76.924 7.40788C75.7145 6.19846 74.074 5.51904 72.364 5.51904ZM72.364 15.1102C71.7424 15.1102 71.1351 14.9259 70.6187 14.5808C70.1019 14.2356 69.6993 13.7449 69.4614 13.1709C69.2235 12.5969 69.1614 11.9652 69.283 11.3558C69.404 10.7465 69.703 10.1867 70.1424 9.74736C70.5819 9.30799 71.1414 9.00878 71.7508 8.88757C72.3603 8.76636 72.9919 8.82857 73.5661 9.06636C74.1398 9.3041 74.6309 9.70678 74.9761 10.2234C75.3209 10.74 75.5051 11.3474 75.5051 11.9687C75.5061 12.3814 75.4251 12.7903 75.2677 13.1717C75.1098 13.5531 74.8787 13.8997 74.5866 14.1915C74.2951 14.4834 73.9482 14.7148 73.5666 14.8724C73.1856 15.03 72.7766 15.1108 72.364 15.1102Z" fill="white"/>
<path d="M45.0773 13.6236L42.1326 5.74268H38.6553L43.3947 18.1947H46.8444L51.4993 5.74268H48.022L45.0773 13.6236Z" fill="white"/>
<path d="M62.4361 2.43359H59.1271V5.74259H57.1924V8.71575H59.1271V14.0163C59.1271 17.0171 60.7819 18.3069 63.1092 18.3069C63.8987 18.3183 64.6819 18.1654 65.4092 17.858V14.7734C65.0134 14.9193 64.5961 14.9966 64.1745 15.0021C63.1698 15.0021 62.4361 14.6093 62.4361 13.2634V8.71575H65.4092V5.74259H62.4361V2.43359Z" fill="white"/>
<path d="M54.2197 4.84552C55.5518 4.84552 56.6318 3.76563 56.6318 2.4335C56.6318 1.10138 55.5518 0.0214844 54.2197 0.0214844C52.8876 0.0214844 51.8076 1.10138 51.8076 2.4335C51.8076 3.76563 52.8876 4.84552 54.2197 4.84552Z" fill="white"/>
<path d="M55.8743 5.74268H52.5654V18.1947H55.8743V5.74268Z" fill="white"/>
<path d="M6.65652 19.9615C10.219 19.9615 13.107 17.0735 13.107 13.511C13.107 9.94849 10.219 7.06055 6.65652 7.06055C3.09403 7.06055 0.206055 9.94849 0.206055 13.511C0.206055 17.0735 3.09403 19.9615 6.65652 19.9615Z" fill="#04E061"/>
<path d="M17.846 19.1476C19.9987 19.1476 21.7438 17.4025 21.7438 15.2498C21.7438 13.0971 19.9987 11.3521 17.846 11.3521C15.6933 11.3521 13.9482 13.0971 13.9482 15.2498C13.9482 17.4025 15.6933 19.1476 17.846 19.1476Z" fill="#FF4053"/>
<path d="M7.89052 6.22004C9.22267 6.22004 10.3026 5.14014 10.3026 3.80802C10.3026 2.4759 9.22267 1.396 7.89052 1.396C6.55841 1.396 5.47852 2.4759 5.47852 3.80802C5.47852 5.14014 6.55841 6.22004 7.89052 6.22004Z" fill="#965EEB"/>
<path d="M16.3324 10.5104C19.2288 10.5104 21.5768 8.16239 21.5768 5.26597C21.5768 2.36951 19.2288 0.0214844 16.3324 0.0214844C13.4359 0.0214844 11.0879 2.36951 11.0879 5.26597C11.0879 8.16239 13.4359 10.5104 16.3324 10.5104Z" fill="#00AAFF"/>
</g>
</g>
<defs>
<clipPath id="clip0_161_1715">
<rect width="78.6316" height="20" fill="white" transform="translate(0.18457)"/>
</clipPath>
</defs>
</svg>
