<svg width="79" height="20" viewBox="0 0 79 20" fill="none" xmlns="http://www.w3.org/2000/svg">
<g clip-path="url(#clip0_161_1343)">
<mask id="mask0_161_1343" style="mask-type:luminance" maskUnits="userSpaceOnUse" x="0" y="0" width="79" height="20">
<path d="M78.9997 0H0.368164V20H78.9997V0Z" fill="white"/>
</mask>
<g mask="url(#mask0_161_1343)">
<path d="M30.4254 0.470253L23.6416 18.1944H27.2873L28.6951 14.4926H35.8977L37.2989 18.1944H40.9169L34.1582 0.470253H30.4254ZM29.9304 11.2397L32.304 5.00284L34.6641 11.2397H29.9304Z" fill="#101624"/>
<path d="M72.5476 5.51874C71.2718 5.51874 70.025 5.89695 68.9644 6.60558C67.9039 7.31416 67.0776 8.32137 66.5897 9.49969C66.1013 10.6781 65.9739 11.9747 66.2223 13.2256C66.4713 14.4766 67.0855 15.6257 67.9876 16.5275C68.8892 17.4294 70.0381 18.0436 71.2892 18.2925C72.5402 18.5413 73.8371 18.4136 75.0155 17.9255C76.1934 17.4374 77.2008 16.6108 77.9092 15.5503C78.6181 14.4898 78.996 13.243 78.996 11.9676C78.996 10.2572 78.3166 8.61695 77.1076 7.40758C75.8981 6.19816 74.2576 5.51874 72.5476 5.51874ZM72.5476 15.1099C71.926 15.1099 71.3187 14.9256 70.8023 14.5805C70.2855 14.2353 69.8829 13.7446 69.645 13.1706C69.4071 12.5966 69.345 11.9649 69.4665 11.3555C69.5876 10.7462 69.8865 10.1864 70.326 9.74705C70.7655 9.30768 71.325 9.00847 71.9344 8.88726C72.5439 8.76605 73.1755 8.82826 73.7497 9.06605C74.3234 9.30379 74.8144 9.70647 75.1597 10.2231C75.5044 10.7397 75.6887 11.3471 75.6887 11.9684C75.6897 12.3811 75.6087 12.7899 75.4513 13.1714C75.2934 13.5528 75.0623 13.8994 74.7702 14.1912C74.4787 14.4831 74.1318 14.7145 73.7502 14.8721C73.3692 15.0297 72.9602 15.1105 72.5476 15.1099Z" fill="#101624"/>
<path d="M45.2609 13.6233L42.3162 5.74237H38.8389L43.5783 18.1944H47.028L51.6829 5.74237H48.2056L45.2609 13.6233Z" fill="#101624"/>
<path d="M62.6197 2.43336H59.3107V5.74237H57.376V8.71552H59.3107V14.0161C59.3107 17.0169 60.9654 18.3066 63.2928 18.3066C64.0823 18.318 64.8654 18.1652 65.5928 17.8577V14.7732C65.197 14.9191 64.7797 14.9964 64.3581 15.0018C63.3533 15.0018 62.6197 14.609 62.6197 13.2632V8.71552H65.5928V5.74237H62.6197V2.43336Z" fill="#101624"/>
<path d="M54.4033 4.84539C55.7354 4.84539 56.8154 3.7655 56.8154 2.43337C56.8154 1.10125 55.7354 0.0213547 54.4033 0.0213547C53.0712 0.0213547 51.9912 1.10125 51.9912 2.43337C51.9912 3.7655 53.0712 4.84539 54.4033 4.84539Z" fill="#101624"/>
<path d="M56.0579 5.74237H52.749V18.1944H56.0579V5.74237Z" fill="#101624"/>
<path d="M6.84011 19.9616C10.4026 19.9616 13.2906 17.0736 13.2906 13.5111C13.2906 9.94858 10.4026 7.06063 6.84011 7.06063C3.27762 7.06063 0.389648 9.94858 0.389648 13.5111C0.389648 17.0736 3.27762 19.9616 6.84011 19.9616Z" fill="#04E061"/>
<path d="M18.0296 19.1475C20.1823 19.1475 21.9274 17.4024 21.9274 15.2497C21.9274 13.097 20.1823 11.352 18.0296 11.352C15.8769 11.352 14.1318 13.097 14.1318 15.2497C14.1318 17.4024 15.8769 19.1475 18.0296 19.1475Z" fill="#FF4053"/>
<path d="M8.07411 6.21973C9.40627 6.21973 10.4862 5.13983 10.4862 3.80771C10.4862 2.47559 9.40627 1.39569 8.07411 1.39569C6.742 1.39569 5.66211 2.47559 5.66211 3.80771C5.66211 5.13983 6.742 6.21973 8.07411 6.21973Z" fill="#965EEB"/>
<path d="M16.516 10.5103C19.4124 10.5103 21.7604 8.16226 21.7604 5.26584C21.7604 2.36938 19.4124 0.0213547 16.516 0.0213547C13.6195 0.0213547 11.2715 2.36938 11.2715 5.26584C11.2715 8.16226 13.6195 10.5103 16.516 10.5103Z" fill="#00AAFF"/>
</g>
</g>
<defs>
<clipPath id="clip0_161_1343">
<rect width="78.6316" height="20" fill="white" transform="translate(0.368164)"/>
</clipPath>
</defs>
</svg>
