<svg width="255" height="256" viewBox="0 0 255 256" fill="none" xmlns="http://www.w3.org/2000/svg">
<rect width="256" height="256" rx="25" fill="#E5E1D8"/>
<path d="M161.857 181C160.746 181 159.838 180.647 159.131 179.94C158.424 179.233 158.071 178.325 158.071 177.214V78.7857C158.071 77.6752 158.424 76.7667 159.131 76.06C159.838 75.3533 160.746 75 161.857 75H178.665C179.776 75 180.684 75.3533 181.391 76.06C182.098 76.7667 182.451 77.6752 182.451 78.7857V160.709H229.394C230.504 160.709 231.413 161.062 232.119 161.769C232.826 162.475 233.179 163.384 233.179 164.494V177.214C233.179 178.325 232.826 179.233 232.119 179.94C231.413 180.647 230.504 181 229.394 181H161.857Z" fill="#3500D3"/>
<path d="M41.7857 181C40.7762 181 39.8676 180.647 39.06 179.94C38.3533 179.233 38 178.325 38 177.214V78.7857C38 77.6752 38.3533 76.7667 39.06 76.06C39.8676 75.3533 40.7762 75 41.7857 75H55.8686C57.3829 75 58.4933 75.4038 59.2 76.2114C60.0076 77.0191 60.5629 77.6248 60.8657 78.0286L88.7286 129.363L116.894 78.0286C117.096 77.6248 117.55 77.0191 118.257 76.2114C119.065 75.4038 120.226 75 121.74 75H135.823C136.933 75 137.842 75.3533 138.549 76.06C139.255 76.7667 139.609 77.6752 139.609 78.7857V177.214C139.609 178.325 139.255 179.233 138.549 179.94C137.842 180.647 136.933 181 135.823 181H120.377C119.368 181 118.51 180.647 117.803 179.94C117.096 179.233 116.743 178.325 116.743 177.214V116.037L97.5114 152.077C97.0067 152.986 96.3505 153.793 95.5429 154.5C94.7352 155.207 93.6752 155.56 92.3629 155.56H85.2457C83.9333 155.56 82.8733 155.207 82.0657 154.5C81.2581 153.793 80.6019 152.986 80.0971 152.077L60.8657 116.037V177.214C60.8657 178.325 60.5124 179.233 59.8057 179.94C59.099 180.647 58.241 181 57.2314 181H41.7857Z" fill="#C3073F"/>
</svg>
