<svg width="160" height="30" viewBox="0 0 160 30" fill="none" xmlns="http://www.w3.org/2000/svg">
<path d="M149.699 29.82C146.632 29.82 144.192 28.9667 142.379 27.26C140.592 25.5533 139.646 23.0733 139.539 19.82C139.539 19.6067 139.539 19.3267 139.539 18.98C139.539 18.6067 139.539 18.3133 139.539 18.1C139.646 16.0467 140.112 14.2867 140.939 12.82C141.766 11.3267 142.926 10.1933 144.419 9.42C145.912 8.62 147.659 8.22 149.659 8.22C151.899 8.22 153.766 8.68667 155.259 9.62C156.779 10.5267 157.912 11.78 158.659 13.38C159.432 14.9533 159.819 16.7667 159.819 18.82V19.74C159.819 20.0067 159.712 20.2333 159.499 20.42C159.312 20.6067 159.086 20.7 158.819 20.7H145.739C145.739 20.7267 145.739 20.78 145.739 20.86C145.739 20.9133 145.739 20.9667 145.739 21.02C145.766 21.8733 145.926 22.66 146.219 23.38C146.539 24.0733 146.979 24.6333 147.539 25.06C148.126 25.4867 148.819 25.7 149.619 25.7C150.286 25.7 150.832 25.6067 151.259 25.42C151.686 25.2333 152.032 25.0067 152.299 24.74C152.592 24.4733 152.806 24.2467 152.939 24.06C153.179 23.7933 153.366 23.6333 153.499 23.58C153.659 23.5 153.899 23.46 154.219 23.46H158.379C158.646 23.46 158.859 23.54 159.019 23.7C159.206 23.8333 159.286 24.0333 159.259 24.3C159.232 24.7267 159.006 25.26 158.579 25.9C158.179 26.5133 157.579 27.1267 156.779 27.74C155.979 28.3267 154.979 28.82 153.779 29.22C152.606 29.62 151.246 29.82 149.699 29.82ZM145.739 17.06H153.579V16.98C153.579 16.02 153.419 15.1933 153.099 14.5C152.806 13.78 152.366 13.22 151.779 12.82C151.192 12.42 150.486 12.22 149.659 12.22C148.832 12.22 148.126 12.42 147.539 12.82C146.952 13.22 146.499 13.78 146.179 14.5C145.886 15.1933 145.739 16.02 145.739 16.98V17.06Z" fill="#3500D3"/>
<path d="M116.066 29.42C115.8 29.42 115.573 29.3267 115.386 29.14C115.2 28.9533 115.106 28.7133 115.106 28.42V9.62C115.106 9.32667 115.2 9.08667 115.386 8.9C115.573 8.71333 115.8 8.62 116.066 8.62H119.986C120.28 8.62 120.52 8.71333 120.706 8.9C120.893 9.08667 120.986 9.32667 120.986 9.62V11.18C121.68 10.3267 122.573 9.62 123.666 9.06C124.76 8.5 126.093 8.22 127.666 8.22C129.24 8.22 130.613 8.58 131.786 9.3C132.986 9.99333 133.92 11.02 134.586 12.38C135.28 13.7133 135.626 15.34 135.626 17.26V28.42C135.626 28.7133 135.52 28.9533 135.306 29.14C135.12 29.3267 134.893 29.42 134.626 29.42H130.386C130.093 29.42 129.853 29.3267 129.666 29.14C129.48 28.9533 129.386 28.7133 129.386 28.42V17.5C129.386 16.0867 129.04 14.9933 128.346 14.22C127.68 13.42 126.693 13.02 125.386 13.02C124.133 13.02 123.133 13.42 122.386 14.22C121.64 14.9933 121.266 16.0867 121.266 17.5V28.42C121.266 28.7133 121.173 28.9533 120.986 29.14C120.8 29.3267 120.573 29.42 120.306 29.42H116.066Z" fill="#3500D3"/>
<path d="M105.091 29.42C104.824 29.42 104.597 29.3267 104.411 29.14C104.224 28.9533 104.131 28.7133 104.131 28.42V9.62C104.131 9.32667 104.224 9.08667 104.411 8.9C104.597 8.71333 104.824 8.62 105.091 8.62H109.091C109.384 8.62 109.624 8.71333 109.811 8.9C109.997 9.08667 110.091 9.32667 110.091 9.62V28.42C110.091 28.7133 109.997 28.9533 109.811 29.14C109.624 29.3267 109.384 29.42 109.091 29.42H105.091ZM104.971 5.42C104.704 5.42 104.477 5.32667 104.291 5.14C104.104 4.95333 104.011 4.71333 104.011 4.42V1.22C104.011 0.926666 104.104 0.686666 104.291 0.499999C104.477 0.286666 104.704 0.18 104.971 0.18H109.171C109.464 0.18 109.704 0.286666 109.891 0.499999C110.104 0.686666 110.211 0.926666 110.211 1.22V4.42C110.211 4.71333 110.104 4.95333 109.891 5.14C109.704 5.32667 109.464 5.42 109.171 5.42H104.971Z" fill="#3500D3"/>
<path d="M82.0547 29.42C81.7614 29.42 81.5214 29.3267 81.3347 29.14C81.148 28.9533 81.0547 28.7133 81.0547 28.42V2.42C81.0547 2.12667 81.148 1.88667 81.3347 1.7C81.5214 1.51333 81.7614 1.42 82.0547 1.42H86.4947C86.788 1.42 87.028 1.51333 87.2147 1.7C87.4014 1.88667 87.4947 2.12667 87.4947 2.42V24.06H99.8947C100.188 24.06 100.428 24.1533 100.615 24.34C100.801 24.5267 100.895 24.7667 100.895 25.06V28.42C100.895 28.7133 100.801 28.9533 100.615 29.14C100.428 29.3267 100.188 29.42 99.8947 29.42H82.0547Z" fill="#3500D3"/>
<path d="M63.4516 29.82C62.1183 29.82 60.9316 29.6067 59.8916 29.18C58.8516 28.7267 57.9716 28.0867 57.2516 27.26C56.5316 26.4067 55.9849 25.4067 55.6116 24.26C55.2383 23.0867 55.0116 21.7933 54.9316 20.38C54.9049 19.8733 54.8916 19.42 54.8916 19.02C54.8916 18.5933 54.9049 18.14 54.9316 17.66C54.9849 16.2733 55.1983 15.0067 55.5716 13.86C55.9716 12.7133 56.5183 11.7267 57.2116 10.9C57.9316 10.0467 58.8116 9.39333 59.8516 8.94C60.9183 8.46 62.1183 8.22 63.4516 8.22C64.8383 8.22 66.0249 8.46 67.0116 8.94C67.9983 9.39333 68.8116 9.99333 69.4516 10.74V2.02C69.4516 1.72666 69.5449 1.48666 69.7316 1.3C69.9183 1.11333 70.1583 1.02 70.4516 1.02H74.5716C74.8383 1.02 75.0649 1.11333 75.2516 1.3C75.4383 1.48666 75.5316 1.72666 75.5316 2.02V28.42C75.5316 28.7133 75.4383 28.9533 75.2516 29.14C75.0649 29.3267 74.8383 29.42 74.5716 29.42H70.7316C70.4649 29.42 70.2383 29.3267 70.0516 29.14C69.8649 28.9533 69.7716 28.7133 69.7716 28.42V27.06C69.1049 27.86 68.2649 28.5267 67.2516 29.06C66.2383 29.5667 64.9716 29.82 63.4516 29.82ZM65.2916 25.02C66.2783 25.02 67.0649 24.7933 67.6516 24.34C68.2649 23.8867 68.7049 23.3133 68.9716 22.62C69.2649 21.9267 69.4249 21.18 69.4516 20.38C69.5049 19.8733 69.5316 19.3667 69.5316 18.86C69.5316 18.3533 69.5049 17.86 69.4516 17.38C69.4249 16.6333 69.2649 15.94 68.9716 15.3C68.6783 14.6333 68.2249 14.0867 67.6116 13.66C67.0249 13.2333 66.2516 13.02 65.2916 13.02C64.2783 13.02 63.4783 13.2467 62.8916 13.7C62.3049 14.1267 61.8783 14.7 61.6116 15.42C61.3716 16.14 61.2249 16.9267 61.1716 17.78C61.0916 18.6067 61.0916 19.4333 61.1716 20.26C61.2249 21.1133 61.3716 21.9 61.6116 22.62C61.8783 23.34 62.3049 23.9267 62.8916 24.38C63.4783 24.8067 64.2783 25.02 65.2916 25.02Z" fill="#C3073F"/>
<path d="M41.6131 29.82C38.5465 29.82 36.1065 28.9667 34.2931 27.26C32.5065 25.5533 31.5598 23.0733 31.4531 19.82C31.4531 19.6067 31.4531 19.3267 31.4531 18.98C31.4531 18.6067 31.4531 18.3133 31.4531 18.1C31.5598 16.0467 32.0265 14.2867 32.8531 12.82C33.6798 11.3267 34.8398 10.1933 36.3331 9.42C37.8265 8.62 39.5731 8.22 41.5731 8.22C43.8131 8.22 45.6798 8.68667 47.1731 9.62C48.6931 10.5267 49.8265 11.78 50.5731 13.38C51.3465 14.9533 51.7331 16.7667 51.7331 18.82V19.74C51.7331 20.0067 51.6265 20.2333 51.4131 20.42C51.2265 20.6067 50.9998 20.7 50.7331 20.7H37.6531C37.6531 20.7267 37.6531 20.78 37.6531 20.86C37.6531 20.9133 37.6531 20.9667 37.6531 21.02C37.6798 21.8733 37.8398 22.66 38.1331 23.38C38.4531 24.0733 38.8931 24.6333 39.4531 25.06C40.0398 25.4867 40.7331 25.7 41.5331 25.7C42.1998 25.7 42.7465 25.6067 43.1731 25.42C43.5998 25.2333 43.9465 25.0067 44.2131 24.74C44.5065 24.4733 44.7198 24.2467 44.8531 24.06C45.0931 23.7933 45.2798 23.6333 45.4131 23.58C45.5731 23.5 45.8131 23.46 46.1331 23.46H50.2931C50.5598 23.46 50.7731 23.54 50.9331 23.7C51.1198 23.8333 51.1998 24.0333 51.1731 24.3C51.1465 24.7267 50.9198 25.26 50.4931 25.9C50.0931 26.5133 49.4931 27.1267 48.6931 27.74C47.8931 28.3267 46.8931 28.82 45.6931 29.22C44.5198 29.62 43.1598 29.82 41.6131 29.82ZM37.6531 17.06H45.4931V16.98C45.4931 16.02 45.3331 15.1933 45.0131 14.5C44.7198 13.78 44.2798 13.22 43.6931 12.82C43.1065 12.42 42.3998 12.22 41.5731 12.22C40.7465 12.22 40.0398 12.42 39.4531 12.82C38.8665 13.22 38.4131 13.78 38.0931 14.5C37.7998 15.1933 37.6531 16.02 37.6531 16.98V17.06Z" fill="#C3073F"/>
<path d="M1 29.42C0.733333 29.42 0.493333 29.3267 0.28 29.14C0.0933333 28.9533 0 28.7133 0 28.42V2.42C0 2.12667 0.0933333 1.88667 0.28 1.7C0.493333 1.51333 0.733333 1.42 1 1.42H4.72C5.12 1.42 5.41333 1.52667 5.6 1.74C5.81333 1.95333 5.96 2.11333 6.04 2.22L13.4 15.78L20.84 2.22C20.8933 2.11333 21.0133 1.95333 21.2 1.74C21.4133 1.52667 21.72 1.42 22.12 1.42H25.84C26.1333 1.42 26.3733 1.51333 26.56 1.7C26.7467 1.88667 26.84 2.12667 26.84 2.42V28.42C26.84 28.7133 26.7467 28.9533 26.56 29.14C26.3733 29.3267 26.1333 29.42 25.84 29.42H21.76C21.4933 29.42 21.2667 29.3267 21.08 29.14C20.8933 28.9533 20.8 28.7133 20.8 28.42V12.26L15.72 21.78C15.5867 22.02 15.4133 22.2333 15.2 22.42C14.9867 22.6067 14.7067 22.7 14.36 22.7H12.48C12.1333 22.7 11.8533 22.6067 11.64 22.42C11.4267 22.2333 11.2533 22.02 11.12 21.78L6.04 12.26V28.42C6.04 28.7133 5.94667 28.9533 5.76 29.14C5.57333 29.3267 5.34667 29.42 5.08 29.42H1Z" fill="#C3073F"/>
</svg>
