<svg width="31" height="30" viewBox="0 0 31 30" fill="none" xmlns="http://www.w3.org/2000/svg">
<rect x="3" y="3" width="24" height="24" rx="6" fill="#005FF9"/>
<path fill-rule="evenodd" clip-rule="evenodd" d="M7 15C7 10.5887 10.5887 7 15 7C19.4112 7 23 10.5887 23 15C23 15.6249 22.948 16.1308 22.8315 16.6386L22.8298 16.647C22.8295 16.6485 22.7717 16.8826 22.7397 16.9847C22.542 17.617 22.184 18.1437 21.7044 18.5077C21.2394 18.8608 20.6627 19.0553 20.0807 19.0553C20.0088 19.0553 19.9364 19.0524 19.8655 19.0467C19.0391 18.9804 18.3125 18.5455 17.8669 17.852C17.1005 18.6226 16.0838 19.0466 15 19.0466C12.7687 19.0466 10.9534 17.2313 10.9534 15C10.9534 12.7687 12.7687 10.9534 15 10.9534C17.2313 10.9534 19.0465 12.7687 19.0465 15V16.3044C19.0498 17.0655 19.5606 17.3766 19.9969 17.4118C20.4311 17.4454 21.0088 17.1925 21.2101 16.3672C21.3094 15.9145 21.3598 15.4544 21.3598 15C21.3598 11.4931 18.5068 8.64013 15 8.64013C11.4931 8.64013 8.64019 11.4931 8.64019 15C8.64019 18.5068 11.4931 21.3598 15 21.3598C16.2207 21.3598 17.4079 21.0112 18.4332 20.3516L18.4516 20.3397L19.5293 21.5928L19.5062 21.6086C18.1743 22.5189 16.6161 23 15 23C10.5887 23 7 19.4112 7 15ZM15 17.4064C16.3268 17.4064 17.4063 16.3269 17.4063 15C17.4063 13.6731 16.3268 12.5937 15 12.5937C13.673 12.5937 12.5936 13.6731 12.5936 15C12.5936 16.3269 13.673 17.4064 15 17.4064Z" fill="#FF9E00"/>
</svg>
