<svg width="18" height="17" viewBox="0 0 18 17" fill="none" xmlns="http://www.w3.org/2000/svg">
<path d="M8.53379 0.70288C8.6988 0.277135 9.3012 0.277136 9.46621 0.702881L11.411 5.72061C11.4819 5.90364 11.6534 6.02823 11.8494 6.03914L17.2225 6.33815C17.6784 6.36352 17.8645 6.93644 17.5106 7.22493L13.3394 10.6251C13.1873 10.7491 13.1218 10.9507 13.172 11.1405L14.548 16.343C14.6647 16.7844 14.1774 17.1385 13.7936 16.891L9.27096 13.9747C9.10598 13.8683 8.89402 13.8683 8.72904 13.9747L4.20635 16.8911C3.82261 17.1385 3.33526 16.7844 3.45201 16.343L4.82802 11.1405C4.87821 10.9507 4.81271 10.7491 4.66055 10.6251L0.489375 7.22493C0.135459 6.93644 0.321612 6.36352 0.777509 6.33815L6.15061 6.03914C6.34661 6.02823 6.5181 5.90364 6.58904 5.72061L8.53379 0.70288Z" fill="#FFBC03"/>
</svg>
