<svg width="48" height="48" viewBox="0 0 48 48" fill="none" xmlns="http://www.w3.org/2000/svg">
<path d="M45.8438 23.9906C45.8438 23.9719 45.8438 23.9437 45.8438 23.925C45.8438 23.775 45.8438 23.625 45.8344 23.4844C45.8344 23.4 45.825 23.3156 45.825 23.2219C45.825 23.1375 45.8156 23.0531 45.8156 22.9687C45.8063 22.8656 45.8063 22.7625 45.7969 22.6594C45.7969 22.5937 45.7875 22.5281 45.7875 22.4625C45.7781 22.35 45.7687 22.2375 45.7594 22.125C45.7594 22.0781 45.75 22.0219 45.75 21.975C45.7406 21.8531 45.7219 21.7312 45.7125 21.6C45.7125 21.5719 45.7031 21.5344 45.7031 21.5062C44.4656 10.6125 35.2219 2.14685 24 2.14685C12.7781 2.14685 3.53437 10.6125 2.29688 21.5156C2.29688 21.5437 2.2875 21.5812 2.2875 21.6094C2.27812 21.7312 2.25937 21.8531 2.25 21.9844C2.24063 22.0312 2.24062 22.0875 2.24062 22.1344C2.23125 22.2469 2.22188 22.3594 2.2125 22.4719C2.2125 22.5375 2.20312 22.6031 2.20312 22.6687C2.19375 22.7719 2.19375 22.875 2.18437 22.9781C2.18437 23.0625 2.175 23.1469 2.175 23.2312C2.175 23.3156 2.16563 23.4 2.16563 23.4937C2.16563 23.6437 2.15625 23.7937 2.15625 23.9344C2.15625 23.9531 2.15625 23.9812 2.15625 24C2.15625 24 2.15625 24 2.15625 24.0094C2.15625 24.0187 2.15625 24.0094 2.15625 24.0187C2.15625 24.0375 2.15625 24.0656 2.15625 24.0844C2.15625 24.2344 2.15625 24.3844 2.16563 24.525C2.16563 24.6094 2.175 24.6937 2.175 24.7875C2.175 24.8719 2.18437 24.9562 2.18437 25.0406C2.19375 25.1437 2.19375 25.2469 2.20312 25.35C2.20312 25.4156 2.2125 25.4812 2.2125 25.5469C2.22188 25.6594 2.23125 25.7719 2.24062 25.8844C2.24062 25.9312 2.25 25.9875 2.25 26.0344C2.25937 26.1562 2.27812 26.2781 2.2875 26.4094C2.2875 26.4375 2.29688 26.475 2.29688 26.5031C3.53437 37.3875 12.7781 45.8531 24 45.8531C35.2219 45.8531 44.4656 37.3875 45.7031 26.4937C45.7031 26.4656 45.7125 26.4281 45.7125 26.4C45.7219 26.2781 45.7406 26.1562 45.75 26.025C45.7594 25.9781 45.7594 25.9219 45.7594 25.875C45.7687 25.7625 45.7781 25.65 45.7875 25.5375C45.7875 25.4719 45.7969 25.4062 45.7969 25.3406C45.8063 25.2375 45.8063 25.1344 45.8156 25.0312C45.8156 24.9469 45.825 24.8625 45.825 24.7781C45.825 24.6937 45.8344 24.6094 45.8344 24.5156C45.8344 24.3656 45.8438 24.2156 45.8438 24.075C45.8438 24.0562 45.8438 24.0281 45.8438 24.0094C45.8438 24 45.8438 24 45.8438 23.9906C45.8438 24 45.8438 24 45.8438 23.9906Z" fill="#2BB673"/>
<path d="M20.0254 32.2688L34.6598 17.6438" stroke="white" stroke-width="3" stroke-miterlimit="10"/>
<path d="M21.9195 32.3625L14.5039 24.9469" stroke="white" stroke-width="3" stroke-miterlimit="10"/>
</svg>
