<svg width="168" height="31" viewBox="0 0 168 31" fill="none" xmlns="http://www.w3.org/2000/svg">
<path opacity="0.5" d="M87.9453 29.8106C87.8707 29.8106 87.8053 29.7826 87.7493 29.7266C87.6933 29.6706 87.6653 29.6053 87.6653 29.5306C87.6653 29.4933 87.67 29.4559 87.6793 29.4186C87.6887 29.3813 87.7073 29.3346 87.7353 29.2786L88.8133 26.7166L86.1393 20.4026C86.0927 20.2906 86.0693 20.2113 86.0693 20.1646C86.0693 20.0806 86.0973 20.0106 86.1533 19.9546C86.2093 19.8986 86.2793 19.8706 86.3633 19.8706H87.0493C87.1427 19.8706 87.2173 19.8939 87.2733 19.9406C87.3293 19.9873 87.3667 20.0433 87.3853 20.1086L89.5133 25.2046L91.6973 20.1086C91.7253 20.0433 91.7627 19.9873 91.8093 19.9406C91.8653 19.8939 91.9447 19.8706 92.0473 19.8706H92.7053C92.7893 19.8706 92.8593 19.8986 92.9153 19.9546C92.9713 20.0106 92.9993 20.0759 92.9993 20.1506C92.9993 20.1973 92.976 20.2813 92.9293 20.4026L88.9533 29.5726C88.9253 29.6379 88.8833 29.6939 88.8273 29.7406C88.7807 29.7873 88.706 29.8106 88.6033 29.8106H87.9453Z" fill="white"/>
<path opacity="0.5" d="M82.0921 27.291C81.4294 27.291 80.8554 27.165 80.3701 26.913C79.8941 26.6516 79.5254 26.283 79.2641 25.807C79.0028 25.3216 78.8627 24.743 78.8441 24.071C78.8347 23.931 78.8301 23.7443 78.8301 23.511C78.8301 23.2776 78.8347 23.091 78.8441 22.951C78.8627 22.279 79.0028 21.705 79.2641 21.229C79.5254 20.7436 79.8941 20.375 80.3701 20.123C80.8554 19.8616 81.4294 19.731 82.0921 19.731C82.6334 19.731 83.0954 19.8056 83.4781 19.955C83.8701 20.1043 84.1921 20.2956 84.4441 20.529C84.6961 20.7623 84.8827 21.0143 85.0041 21.285C85.1347 21.5556 85.2047 21.8123 85.2141 22.055C85.2234 22.1483 85.1954 22.223 85.1301 22.279C85.0647 22.335 84.9854 22.363 84.8921 22.363H84.2201C84.1268 22.363 84.0567 22.3443 84.0101 22.307C83.9634 22.2603 83.9167 22.1856 83.8701 22.083C83.7021 21.6256 83.4734 21.3036 83.1841 21.117C82.8947 20.9303 82.5354 20.837 82.1061 20.837C81.5461 20.837 81.0888 21.0096 80.7341 21.355C80.3888 21.7003 80.2021 22.2556 80.1741 23.021C80.1647 23.357 80.1647 23.6836 80.1741 24.001C80.2021 24.7756 80.3888 25.3356 80.7341 25.681C81.0888 26.017 81.5461 26.185 82.1061 26.185C82.5354 26.185 82.8947 26.0916 83.1841 25.905C83.4734 25.7183 83.7021 25.3963 83.8701 24.939C83.9167 24.8363 83.9634 24.7663 84.0101 24.729C84.0567 24.6823 84.1268 24.659 84.2201 24.659H84.8921C84.9854 24.659 85.0647 24.687 85.1301 24.743C85.1954 24.799 85.2234 24.8736 85.2141 24.967C85.2047 25.163 85.1627 25.3636 85.0881 25.569C85.0134 25.7743 84.8921 25.9843 84.7241 26.199C84.5654 26.4043 84.3647 26.591 84.1221 26.759C83.8794 26.9176 83.5854 27.0483 83.2401 27.151C82.9041 27.2443 82.5214 27.291 82.0921 27.291Z" fill="white"/>
<path opacity="0.5" d="M70.9841 27.151C70.8908 27.151 70.8114 27.123 70.7461 27.067C70.6901 27.0016 70.6621 26.9223 70.6621 26.829V20.193C70.6621 20.0996 70.6901 20.025 70.7461 19.969C70.8114 19.9036 70.8908 19.871 70.9841 19.871H71.6421C71.7354 19.871 71.8101 19.9036 71.8661 19.969C71.9314 20.025 71.9641 20.0996 71.9641 20.193V20.809C72.2068 20.4916 72.5101 20.235 72.8741 20.039C73.2474 19.8336 73.7234 19.731 74.3021 19.731C74.9088 19.731 75.4221 19.8663 75.8421 20.137C76.2714 20.3983 76.5934 20.767 76.8081 21.243C77.0228 21.7096 77.1301 22.2556 77.1301 22.881V26.829C77.1301 26.9223 77.1021 27.0016 77.0461 27.067C76.9901 27.123 76.9154 27.151 76.8221 27.151H76.1221C76.0288 27.151 75.9494 27.123 75.8841 27.067C75.8281 27.0016 75.8001 26.9223 75.8001 26.829V22.951C75.8001 22.2976 75.6414 21.789 75.3241 21.425C75.0068 21.0516 74.5401 20.865 73.9241 20.865C73.3454 20.865 72.8788 21.0516 72.5241 21.425C72.1788 21.789 72.0061 22.2976 72.0061 22.951V26.829C72.0061 26.9223 71.9734 27.0016 71.9081 27.067C71.8521 27.123 71.7774 27.151 71.6841 27.151H70.9841Z" fill="white"/>
<path opacity="0.5" d="M65.7255 27.291C64.7642 27.291 63.9989 26.997 63.4295 26.409C62.8602 25.8116 62.5475 24.9996 62.4915 23.973C62.4822 23.8516 62.4775 23.6976 62.4775 23.511C62.4775 23.315 62.4822 23.1563 62.4915 23.035C62.5289 22.3723 62.6829 21.7936 62.9535 21.299C63.2242 20.795 63.5929 20.4076 64.0595 20.137C64.5355 19.8663 65.0909 19.731 65.7255 19.731C66.4349 19.731 67.0275 19.8803 67.5035 20.179C67.9889 20.4776 68.3575 20.9023 68.6095 21.453C68.8615 22.0036 68.9875 22.6476 68.9875 23.385V23.623C68.9875 23.7256 68.9549 23.805 68.8895 23.861C68.8335 23.917 68.7589 23.945 68.6655 23.945H63.8215C63.8215 23.9543 63.8215 23.973 63.8215 24.001C63.8215 24.029 63.8215 24.0523 63.8215 24.071C63.8402 24.4536 63.9242 24.813 64.0735 25.149C64.2229 25.4756 64.4375 25.7416 64.7175 25.947C64.9975 26.1523 65.3335 26.255 65.7255 26.255C66.0615 26.255 66.3415 26.2036 66.5655 26.101C66.7895 25.9983 66.9715 25.8863 67.1115 25.765C67.2515 25.6343 67.3449 25.5363 67.3915 25.471C67.4755 25.3496 67.5409 25.2796 67.5875 25.261C67.6342 25.233 67.7089 25.219 67.8115 25.219H68.4835C68.5769 25.219 68.6515 25.247 68.7075 25.303C68.7729 25.3496 68.8009 25.4196 68.7915 25.513C68.7822 25.653 68.7075 25.8256 68.5675 26.031C68.4275 26.227 68.2269 26.423 67.9655 26.619C67.7042 26.815 67.3869 26.9783 67.0135 27.109C66.6402 27.2303 66.2109 27.291 65.7255 27.291ZM63.8215 22.979H67.6575V22.937C67.6575 22.517 67.5782 22.1436 67.4195 21.817C67.2702 21.4903 67.0509 21.2336 66.7615 21.047C66.4722 20.851 66.1269 20.753 65.7255 20.753C65.3242 20.753 64.9789 20.851 64.6895 21.047C64.4095 21.2336 64.1949 21.4903 64.0455 21.817C63.8962 22.1436 63.8215 22.517 63.8215 22.937V22.979Z" fill="white"/>
<path opacity="0.5" d="M57.4565 30.231C56.8218 30.231 56.2992 30.147 55.8885 29.979C55.4872 29.811 55.1698 29.6056 54.9365 29.363C54.7125 29.1296 54.5492 28.8916 54.4465 28.649C54.3532 28.4156 54.3018 28.229 54.2925 28.089C54.2832 27.9956 54.3112 27.9163 54.3765 27.851C54.4512 27.7856 54.5305 27.753 54.6145 27.753H55.2865C55.3705 27.753 55.4405 27.7716 55.4965 27.809C55.5525 27.8463 55.5992 27.9256 55.6365 28.047C55.6925 28.187 55.7765 28.341 55.8885 28.509C56.0005 28.6863 56.1732 28.8356 56.4065 28.957C56.6398 29.0876 56.9665 29.153 57.3865 29.153C57.8252 29.153 58.1938 29.0923 58.4925 28.971C58.7912 28.859 59.0152 28.6536 59.1645 28.355C59.3232 28.0656 59.4025 27.6643 59.4025 27.151V26.199C59.1785 26.4883 58.8845 26.731 58.5205 26.927C58.1565 27.1136 57.6992 27.207 57.1485 27.207C56.6258 27.207 56.1778 27.1183 55.8045 26.941C55.4312 26.7543 55.1232 26.507 54.8805 26.199C54.6472 25.8816 54.4698 25.5223 54.3485 25.121C54.2365 24.7196 54.1712 24.2996 54.1525 23.861C54.1432 23.5996 54.1432 23.343 54.1525 23.091C54.1712 22.6523 54.2365 22.2323 54.3485 21.831C54.4698 21.4296 54.6472 21.0703 54.8805 20.753C55.1232 20.4356 55.4312 20.1883 55.8045 20.011C56.1778 19.8243 56.6258 19.731 57.1485 19.731C57.7085 19.731 58.1705 19.8383 58.5345 20.053C58.9078 20.2583 59.2112 20.5103 59.4445 20.809V20.207C59.4445 20.1136 59.4725 20.0343 59.5285 19.969C59.5938 19.9036 59.6732 19.871 59.7665 19.871H60.4105C60.5038 19.871 60.5832 19.9036 60.6485 19.969C60.7138 20.0343 60.7465 20.1136 60.7465 20.207V26.997C60.7465 27.6223 60.6392 28.1776 60.4245 28.663C60.2192 29.1483 59.8738 29.531 59.3885 29.811C58.9125 30.091 58.2685 30.231 57.4565 30.231ZM57.4285 26.087C57.8952 26.087 58.2685 25.9796 58.5485 25.765C58.8378 25.5503 59.0478 25.2796 59.1785 24.953C59.3185 24.6263 59.3932 24.295 59.4025 23.959C59.4118 23.8283 59.4165 23.6696 59.4165 23.483C59.4165 23.287 59.4118 23.1236 59.4025 22.993C59.3932 22.657 59.3185 22.3256 59.1785 21.999C59.0478 21.6723 58.8378 21.4016 58.5485 21.187C58.2685 20.9723 57.8952 20.865 57.4285 20.865C56.9618 20.865 56.5885 20.9723 56.3085 21.187C56.0285 21.3923 55.8278 21.6676 55.7065 22.013C55.5852 22.349 55.5152 22.713 55.4965 23.105C55.4872 23.3476 55.4872 23.595 55.4965 23.847C55.5152 24.239 55.5852 24.6076 55.7065 24.953C55.8278 25.289 56.0285 25.5643 56.3085 25.779C56.5885 25.9843 56.9618 26.087 57.4285 26.087Z" fill="white"/>
<path opacity="0.5" d="M44.7009 27.1506C44.6262 27.1506 44.5609 27.1226 44.5049 27.0666C44.4489 27.0106 44.4209 26.9453 44.4209 26.8706C44.4209 26.8239 44.4256 26.7726 44.4349 26.7166L47.9069 17.6586C47.9442 17.5653 47.9956 17.4906 48.0609 17.4346C48.1262 17.3786 48.2242 17.3506 48.3549 17.3506H49.3069C49.4282 17.3506 49.5216 17.3786 49.5869 17.4346C49.6616 17.4906 49.7176 17.5653 49.7549 17.6586L53.2129 26.7166C53.2316 26.7726 53.2409 26.8239 53.2409 26.8706C53.2409 26.9453 53.2129 27.0106 53.1569 27.0666C53.1009 27.1226 53.0356 27.1506 52.9609 27.1506H52.2469C52.1349 27.1506 52.0509 27.1226 51.9949 27.0666C51.9482 27.0106 51.9156 26.9593 51.8969 26.9126L51.1269 24.9246H46.5349L45.7649 26.9126C45.7556 26.9593 45.7229 27.0106 45.6669 27.0666C45.6109 27.1226 45.5269 27.1506 45.4149 27.1506H44.7009ZM46.9409 23.7206H50.7209L48.8309 18.7506L46.9409 23.7206Z" fill="white"/>
<path opacity="0.5" d="M39.0466 27.1509C38.9533 27.1509 38.8739 27.1229 38.8086 27.0669C38.7526 27.0016 38.7246 26.9223 38.7246 26.8289V17.5329C38.7246 17.4396 38.7526 17.3649 38.8086 17.3089C38.8739 17.2436 38.9533 17.2109 39.0466 17.2109H39.7046C39.8073 17.2109 39.8866 17.2436 39.9426 17.3089C39.9986 17.3649 40.0266 17.4396 40.0266 17.5329V26.8289C40.0266 26.9223 39.9986 27.0016 39.9426 27.0669C39.8866 27.1229 39.8073 27.1509 39.7046 27.1509H39.0466Z" fill="white"/>
<path opacity="0.5" d="M33.0158 27.291C32.5491 27.291 32.1244 27.1976 31.7418 27.011C31.3591 26.8243 31.0511 26.5723 30.8178 26.255C30.5844 25.9376 30.4678 25.5783 30.4678 25.177C30.4678 24.533 30.7291 24.0196 31.2518 23.637C31.7744 23.2543 32.4558 23.0023 33.2958 22.881L35.3818 22.587V22.181C35.3818 21.733 35.2511 21.383 34.9898 21.131C34.7378 20.879 34.3224 20.753 33.7438 20.753C33.3238 20.753 32.9831 20.837 32.7218 21.005C32.4698 21.173 32.2924 21.3876 32.1898 21.649C32.1338 21.789 32.0358 21.859 31.8958 21.859H31.2658C31.1631 21.859 31.0838 21.831 31.0278 21.775C30.9811 21.7096 30.9578 21.635 30.9578 21.551C30.9578 21.411 31.0091 21.2383 31.1118 21.033C31.2238 20.8276 31.3918 20.627 31.6158 20.431C31.8398 20.235 32.1244 20.0716 32.4698 19.941C32.8244 19.801 33.2538 19.731 33.7578 19.731C34.3178 19.731 34.7891 19.8056 35.1718 19.955C35.5544 20.095 35.8531 20.2863 36.0678 20.529C36.2918 20.7716 36.4504 21.047 36.5438 21.355C36.6464 21.663 36.6978 21.9756 36.6978 22.293V26.829C36.6978 26.9223 36.6651 27.0016 36.5998 27.067C36.5438 27.123 36.4691 27.151 36.3758 27.151H35.7318C35.6291 27.151 35.5498 27.123 35.4938 27.067C35.4378 27.0016 35.4098 26.9223 35.4098 26.829V26.227C35.2884 26.395 35.1251 26.563 34.9198 26.731C34.7144 26.8896 34.4578 27.025 34.1498 27.137C33.8418 27.2396 33.4638 27.291 33.0158 27.291ZM33.3098 26.241C33.6924 26.241 34.0424 26.1616 34.3598 26.003C34.6771 25.835 34.9244 25.5783 35.1018 25.233C35.2884 24.8876 35.3818 24.4536 35.3818 23.931V23.539L33.7578 23.777C33.0951 23.8703 32.5958 24.029 32.2598 24.253C31.9238 24.4676 31.7558 24.743 31.7558 25.079C31.7558 25.3403 31.8304 25.5596 31.9798 25.737C32.1384 25.905 32.3344 26.031 32.5678 26.115C32.8104 26.199 33.0578 26.241 33.3098 26.241Z" fill="white"/>
<path opacity="0.5" d="M28.3594 27.1509C27.8367 27.1509 27.4121 27.0529 27.0854 26.8569C26.7587 26.6516 26.5207 26.3669 26.3714 26.0029C26.2221 25.6296 26.1474 25.1909 26.1474 24.6869V20.9909H25.0554C24.9621 20.9909 24.8827 20.9629 24.8174 20.9069C24.7614 20.8416 24.7334 20.7623 24.7334 20.6689V20.1929C24.7334 20.0996 24.7614 20.0249 24.8174 19.9689C24.8827 19.9036 24.9621 19.8709 25.0554 19.8709H26.1474V17.5329C26.1474 17.4396 26.1754 17.3649 26.2314 17.3089C26.2967 17.2436 26.3761 17.2109 26.4694 17.2109H27.1274C27.2207 17.2109 27.2954 17.2436 27.3514 17.3089C27.4167 17.3649 27.4494 17.4396 27.4494 17.5329V19.8709H29.1854C29.2787 19.8709 29.3534 19.9036 29.4094 19.9689C29.4747 20.0249 29.5074 20.0996 29.5074 20.1929V20.6689C29.5074 20.7623 29.4747 20.8416 29.4094 20.9069C29.3534 20.9629 29.2787 20.9909 29.1854 20.9909H27.4494V24.5889C27.4494 25.0276 27.5241 25.3729 27.6734 25.6249C27.8227 25.8769 28.0887 26.0029 28.4714 26.0029H29.3254C29.4187 26.0029 29.4934 26.0356 29.5494 26.1009C29.6147 26.1569 29.6474 26.2316 29.6474 26.3249V26.8289C29.6474 26.9223 29.6147 27.0016 29.5494 27.0669C29.4934 27.1229 29.4187 27.1509 29.3254 27.1509H28.3594Z" fill="white"/>
<path opacity="0.5" d="M22.4486 27.1508C22.3553 27.1508 22.276 27.1228 22.2106 27.0668C22.1546 27.0015 22.1266 26.9221 22.1266 26.8288V20.1928C22.1266 20.0995 22.1546 20.0248 22.2106 19.9688C22.276 19.9035 22.3553 19.8708 22.4486 19.8708H23.1206C23.214 19.8708 23.2886 19.9035 23.3446 19.9688C23.4006 20.0248 23.4286 20.0995 23.4286 20.1928V26.8288C23.4286 26.9221 23.4006 27.0015 23.3446 27.0668C23.2886 27.1228 23.214 27.1508 23.1206 27.1508H22.4486ZM22.3366 18.5128C22.2433 18.5128 22.164 18.4848 22.0986 18.4288C22.0426 18.3635 22.0146 18.2841 22.0146 18.1908V17.4348C22.0146 17.3415 22.0426 17.2668 22.0986 17.2108C22.164 17.1455 22.2433 17.1128 22.3366 17.1128H23.2186C23.312 17.1128 23.3866 17.1455 23.4426 17.2108C23.508 17.2668 23.5406 17.3415 23.5406 17.4348V18.1908C23.5406 18.2841 23.508 18.3635 23.4426 18.4288C23.3866 18.4848 23.312 18.5128 23.2186 18.5128H22.3366Z" fill="white"/>
<path opacity="0.5" d="M16.7553 30.231C16.1207 30.231 15.598 30.147 15.1873 29.979C14.786 29.811 14.4687 29.6056 14.2353 29.363C14.0113 29.1296 13.848 28.8916 13.7453 28.649C13.652 28.4156 13.6007 28.229 13.5913 28.089C13.582 27.9956 13.61 27.9163 13.6753 27.851C13.75 27.7856 13.8293 27.753 13.9133 27.753H14.5853C14.6693 27.753 14.7393 27.7716 14.7953 27.809C14.8513 27.8463 14.898 27.9256 14.9353 28.047C14.9913 28.187 15.0753 28.341 15.1873 28.509C15.2993 28.6863 15.472 28.8356 15.7053 28.957C15.9387 29.0876 16.2653 29.153 16.6853 29.153C17.124 29.153 17.4927 29.0923 17.7913 28.971C18.09 28.859 18.314 28.6536 18.4633 28.355C18.622 28.0656 18.7013 27.6643 18.7013 27.151V26.199C18.4773 26.4883 18.1833 26.731 17.8193 26.927C17.4553 27.1136 16.998 27.207 16.4473 27.207C15.9247 27.207 15.4767 27.1183 15.1033 26.941C14.73 26.7543 14.422 26.507 14.1793 26.199C13.946 25.8816 13.7687 25.5223 13.6473 25.121C13.5353 24.7196 13.47 24.2996 13.4513 23.861C13.442 23.5996 13.442 23.343 13.4513 23.091C13.47 22.6523 13.5353 22.2323 13.6473 21.831C13.7687 21.4296 13.946 21.0703 14.1793 20.753C14.422 20.4356 14.73 20.1883 15.1033 20.011C15.4767 19.8243 15.9247 19.731 16.4473 19.731C17.0073 19.731 17.4693 19.8383 17.8333 20.053C18.2067 20.2583 18.51 20.5103 18.7433 20.809V20.207C18.7433 20.1136 18.7713 20.0343 18.8273 19.969C18.8927 19.9036 18.972 19.871 19.0653 19.871H19.7093C19.8027 19.871 19.882 19.9036 19.9473 19.969C20.0127 20.0343 20.0453 20.1136 20.0453 20.207V26.997C20.0453 27.6223 19.938 28.1776 19.7233 28.663C19.518 29.1483 19.1727 29.531 18.6873 29.811C18.2113 30.091 17.5673 30.231 16.7553 30.231ZM16.7273 26.087C17.194 26.087 17.5673 25.9796 17.8473 25.765C18.1367 25.5503 18.3467 25.2796 18.4773 24.953C18.6173 24.6263 18.692 24.295 18.7013 23.959C18.7107 23.8283 18.7153 23.6696 18.7153 23.483C18.7153 23.287 18.7107 23.1236 18.7013 22.993C18.692 22.657 18.6173 22.3256 18.4773 21.999C18.3467 21.6723 18.1367 21.4016 17.8473 21.187C17.5673 20.9723 17.194 20.865 16.7273 20.865C16.2607 20.865 15.8873 20.9723 15.6073 21.187C15.3273 21.3923 15.1267 21.6676 15.0053 22.013C14.884 22.349 14.814 22.713 14.7953 23.105C14.786 23.3476 14.786 23.595 14.7953 23.847C14.814 24.239 14.884 24.6076 15.0053 24.953C15.1267 25.289 15.3273 25.5643 15.6073 25.779C15.8873 25.9843 16.2607 26.087 16.7273 26.087Z" fill="white"/>
<path opacity="0.5" d="M10.7045 27.1508C10.6112 27.1508 10.5318 27.1228 10.4665 27.0668C10.4105 27.0015 10.3825 26.9221 10.3825 26.8288V20.1928C10.3825 20.0995 10.4105 20.0248 10.4665 19.9688C10.5318 19.9035 10.6112 19.8708 10.7045 19.8708H11.3765C11.4698 19.8708 11.5445 19.9035 11.6005 19.9688C11.6565 20.0248 11.6845 20.0995 11.6845 20.1928V26.8288C11.6845 26.9221 11.6565 27.0015 11.6005 27.0668C11.5445 27.1228 11.4698 27.1508 11.3765 27.1508H10.7045ZM10.5925 18.5128C10.4992 18.5128 10.4198 18.4848 10.3545 18.4288C10.2985 18.3635 10.2705 18.2841 10.2705 18.1908V17.4348C10.2705 17.3415 10.2985 17.2668 10.3545 17.2108C10.4198 17.1455 10.4992 17.1128 10.5925 17.1128H11.4745C11.5678 17.1128 11.6425 17.1455 11.6985 17.2108C11.7638 17.2668 11.7965 17.3415 11.7965 17.4348V18.1908C11.7965 18.2841 11.7638 18.3635 11.6985 18.4288C11.6425 18.4848 11.5678 18.5128 11.4745 18.5128H10.5925Z" fill="white"/>
<path opacity="0.5" d="M1.23411 27.1506C1.13144 27.1506 1.05211 27.1226 0.996109 27.0666C0.940109 27.0013 0.912109 26.9219 0.912109 26.8286V17.6866C0.912109 17.5839 0.940109 17.5046 0.996109 17.4486C1.05211 17.3833 1.13144 17.3506 1.23411 17.3506H4.41211C5.37344 17.3506 6.14811 17.4953 6.73611 17.7846C7.32411 18.0739 7.75344 18.5033 8.02411 19.0726C8.29478 19.6326 8.43478 20.3233 8.44411 21.1446C8.45344 21.5646 8.45811 21.9333 8.45811 22.2506C8.45811 22.5679 8.45344 22.9319 8.44411 23.3426C8.42544 24.2013 8.28078 24.9153 8.01011 25.4846C7.74878 26.0446 7.32878 26.4646 6.75011 26.7446C6.18078 27.0153 5.42478 27.1506 4.48211 27.1506H1.23411ZM2.28411 25.9606H4.41211C5.05611 25.9606 5.56944 25.8719 5.95211 25.6946C6.33478 25.5173 6.61011 25.2326 6.77811 24.8406C6.95544 24.4486 7.04878 23.9306 7.05811 23.2866C7.07678 23.0066 7.08611 22.7639 7.08611 22.5586C7.08611 22.3439 7.08611 22.1339 7.08611 21.9286C7.08611 21.7139 7.07678 21.4713 7.05811 21.2006C7.03944 20.2953 6.82478 19.6279 6.41411 19.1986C6.00344 18.7599 5.31278 18.5406 4.34211 18.5406H2.28411V25.9606Z" fill="white"/>
<path opacity="0.5" d="M89.0939 11.334C88.3349 11.334 87.7008 11.1892 87.1914 10.8996C86.6821 10.6099 86.2926 10.2105 86.023 9.70113C85.7533 9.18182 85.6035 8.59259 85.5736 7.93346C85.5636 7.76368 85.5586 7.54897 85.5586 7.28931C85.5586 7.01966 85.5636 6.80494 85.5736 6.64516C85.6035 5.97604 85.7533 5.38681 86.023 4.87748C86.3026 4.36815 86.6971 3.96868 87.2064 3.67906C87.7158 3.38944 88.3449 3.24463 89.0939 3.24463C89.843 3.24463 90.4721 3.38944 90.9815 3.67906C91.4908 3.96868 91.8803 4.36815 92.1499 4.87748C92.4296 5.38681 92.5844 5.97604 92.6143 6.64516C92.6243 6.80494 92.6293 7.01966 92.6293 7.28931C92.6293 7.54897 92.6243 7.76368 92.6143 7.93346C92.5844 8.59259 92.4346 9.18182 92.1649 9.70113C91.8953 10.2105 91.5058 10.6099 90.9964 10.8996C90.4871 11.1892 89.8529 11.334 89.0939 11.334ZM89.0939 10.1805C89.7131 10.1805 90.2075 9.98576 90.577 9.59627C90.9465 9.1968 91.1462 8.61756 91.1762 7.85856C91.1862 7.70876 91.1912 7.519 91.1912 7.28931C91.1912 7.05961 91.1862 6.86986 91.1762 6.72006C91.1462 5.96106 90.9465 5.38681 90.577 4.99732C90.2075 4.59785 89.7131 4.39811 89.0939 4.39811C88.4748 4.39811 87.9754 4.59785 87.5959 4.99732C87.2264 5.38681 87.0317 5.96106 87.0117 6.72006C87.0017 6.86986 86.9967 7.05961 86.9967 7.28931C86.9967 7.519 87.0017 7.70876 87.0117 7.85856C87.0317 8.61756 87.2264 9.1968 87.5959 9.59627C87.9754 9.98576 88.4748 10.1805 89.0939 10.1805Z" fill="white"/>
<path opacity="0.5" d="M77.1199 11.1838C77.0201 11.1838 76.9352 11.1538 76.8653 11.0939C76.8054 11.024 76.7754 10.9391 76.7754 10.8392V3.73859C76.7754 3.63872 76.8054 3.55883 76.8653 3.49891C76.9352 3.429 77.0201 3.39404 77.1199 3.39404H77.839C77.9389 3.39404 78.0187 3.429 78.0787 3.49891C78.1386 3.55883 78.1686 3.63872 78.1686 3.73859V6.6148H82.2582V3.73859C82.2582 3.63872 82.2881 3.55883 82.3481 3.49891C82.418 3.429 82.5029 3.39404 82.6027 3.39404H83.3068C83.4067 3.39404 83.4866 3.429 83.5465 3.49891C83.6164 3.55883 83.6513 3.63872 83.6513 3.73859V10.8392C83.6513 10.9391 83.6164 11.024 83.5465 11.0939C83.4866 11.1538 83.4067 11.1838 83.3068 11.1838H82.6027C82.5029 11.1838 82.418 11.1538 82.3481 11.0939C82.2881 11.024 82.2582 10.9391 82.2582 10.8392V7.81323H78.1686V10.8392C78.1686 10.9391 78.1386 11.024 78.0787 11.0939C78.0187 11.1538 77.9389 11.1838 77.839 11.1838H77.1199Z" fill="white"/>
<path opacity="0.5" d="M70.6815 11.334C70.1822 11.334 69.7277 11.2341 69.3183 11.0344C68.9088 10.8346 68.5793 10.565 68.3296 10.2254C68.0799 9.88589 67.9551 9.5014 67.9551 9.07196C67.9551 8.38287 68.2347 7.83359 68.794 7.42413C69.3532 7.01467 70.0823 6.74502 70.9811 6.61519L73.2132 6.30061V5.86618C73.2132 5.38681 73.0733 5.0123 72.7937 4.74266C72.5241 4.47301 72.0797 4.33819 71.4605 4.33819C71.0111 4.33819 70.6465 4.42807 70.3669 4.60784C70.0973 4.7876 69.9075 5.0173 69.7977 5.29693C69.7377 5.44673 69.6329 5.52163 69.4831 5.52163H68.809C68.6991 5.52163 68.6142 5.49167 68.5543 5.43175C68.5044 5.36184 68.4794 5.28195 68.4794 5.19207C68.4794 5.04226 68.5343 4.85751 68.6442 4.6378C68.764 4.41809 68.9438 4.20337 69.1835 3.99364C69.4231 3.78392 69.7277 3.60915 70.0973 3.46933C70.4768 3.31953 70.9362 3.24463 71.4754 3.24463C72.0747 3.24463 72.579 3.32452 72.9885 3.48431C73.3979 3.63412 73.7175 3.83885 73.9472 4.09851C74.1869 4.35816 74.3567 4.65278 74.4565 4.98234C74.5664 5.31191 74.6213 5.64647 74.6213 5.98602V10.8396C74.6213 10.9395 74.5864 11.0244 74.5164 11.0943C74.4565 11.1542 74.3766 11.1842 74.2768 11.1842H73.5877C73.4778 11.1842 73.3929 11.1542 73.333 11.0943C73.2731 11.0244 73.2431 10.9395 73.2431 10.8396V10.1955C73.1133 10.3752 72.9385 10.555 72.7188 10.7348C72.4991 10.9046 72.2245 11.0494 71.8949 11.1692C71.5653 11.2791 71.1609 11.334 70.6815 11.334ZM70.9961 10.2105C71.4055 10.2105 71.7801 10.1256 72.1196 9.9558C72.4592 9.77604 72.7238 9.5014 72.9136 9.13188C73.1133 8.76237 73.2132 8.29798 73.2132 7.73872V7.31927L71.4754 7.57393C70.7664 7.6738 70.2321 7.84358 69.8726 8.08326C69.513 8.31296 69.3333 8.60757 69.3333 8.9671C69.3333 9.24673 69.4132 9.48142 69.573 9.67117C69.7427 9.85094 69.9525 9.98576 70.2021 10.0756C70.4618 10.1655 70.7264 10.2105 70.9961 10.2105Z" fill="white"/>
<path opacity="0.5" d="M63.2254 11.1838C63.1255 11.1838 63.0406 11.1538 62.9707 11.0939C62.9108 11.024 62.8808 10.9391 62.8808 10.8392V4.59247H60.2742C60.1744 4.59247 60.0895 4.56251 60.0196 4.50259C59.9596 4.43268 59.9297 4.34779 59.9297 4.24792V3.73859C59.9297 3.63872 59.9596 3.55883 60.0196 3.49891C60.0895 3.429 60.1744 3.39404 60.2742 3.39404H66.8656C66.9654 3.39404 67.0453 3.429 67.1052 3.49891C67.1752 3.55883 67.2101 3.63872 67.2101 3.73859V4.24792C67.2101 4.34779 67.1752 4.43268 67.1052 4.50259C67.0453 4.56251 66.9654 4.59247 66.8656 4.59247H64.259V10.8392C64.259 10.9391 64.229 11.024 64.1691 11.0939C64.1092 11.1538 64.0243 11.1838 63.9144 11.1838H63.2254Z" fill="white"/>
<path opacity="0.5" d="M55.4328 11.334C54.6738 11.334 54.0396 11.1892 53.5303 10.8996C53.021 10.6099 52.6315 10.2105 52.3618 9.70113C52.0922 9.18182 51.9424 8.59259 51.9124 7.93346C51.9025 7.76368 51.8975 7.54897 51.8975 7.28931C51.8975 7.01966 51.9025 6.80494 51.9124 6.64516C51.9424 5.97604 52.0922 5.38681 52.3618 4.87748C52.6415 4.36815 53.036 3.96868 53.5453 3.67906C54.0546 3.38944 54.6838 3.24463 55.4328 3.24463C56.1818 3.24463 56.811 3.38944 57.3203 3.67906C57.8297 3.96868 58.2191 4.36815 58.4888 4.87748C58.7684 5.38681 58.9232 5.97604 58.9532 6.64516C58.9632 6.80494 58.9682 7.01966 58.9682 7.28931C58.9682 7.54897 58.9632 7.76368 58.9532 7.93346C58.9232 8.59259 58.7734 9.18182 58.5038 9.70113C58.2341 10.2105 57.8446 10.6099 57.3353 10.8996C56.826 11.1892 56.1918 11.334 55.4328 11.334ZM55.4328 10.1805C56.052 10.1805 56.5463 9.98576 56.9159 9.59627C57.2854 9.1968 57.4851 8.61756 57.5151 7.85856C57.5251 7.70876 57.53 7.519 57.53 7.28931C57.53 7.05961 57.5251 6.86986 57.5151 6.72006C57.4851 5.96106 57.2854 5.38681 56.9159 4.99732C56.5463 4.59785 56.052 4.39811 55.4328 4.39811C54.8136 4.39811 54.3143 4.59785 53.9348 4.99732C53.5653 5.38681 53.3705 5.96106 53.3505 6.72006C53.3406 6.86986 53.3356 7.05961 53.3356 7.28931C53.3356 7.519 53.3406 7.70876 53.3505 7.85856C53.3705 8.61756 53.5653 9.1968 53.9348 9.59627C54.3143 9.98576 54.8136 10.1805 55.4328 10.1805Z" fill="white"/>
<path opacity="0.5" d="M46.8322 11.3337C46.0632 11.3337 45.4191 11.1888 44.8998 10.8992C44.3904 10.5996 44.0009 10.1802 43.7313 9.64089C43.4716 9.09161 43.3318 8.45744 43.3119 7.73839C43.3019 7.43878 43.2969 7.13918 43.2969 6.83957C43.2969 6.53997 43.3019 6.24036 43.3119 5.94075C43.3119 5.03195 43.3868 4.27794 43.5366 3.67873C43.6864 3.07952 43.9111 2.59016 44.2107 2.21066C44.5203 1.82118 44.9098 1.5016 45.3791 1.25192C45.8485 1.00225 46.4028 0.787535 47.0419 0.607772C47.6811 0.418022 48.4101 0.218284 49.2291 0.00855998C49.3189 -0.0114135 49.4038 0.00356692 49.4837 0.0535012C49.5736 0.103435 49.6236 0.173344 49.6335 0.263225L49.7534 0.877417C49.7734 0.967299 49.7584 1.04719 49.7084 1.1171C49.6685 1.18701 49.6036 1.23195 49.5137 1.25192C48.7647 1.44167 48.1105 1.60646 47.5513 1.74627C46.992 1.88609 46.5226 2.05087 46.1431 2.24062C45.7636 2.42039 45.459 2.65508 45.2293 2.9447C44.9996 3.23432 44.8398 3.61881 44.75 4.09818C44.6701 4.57755 44.6451 5.19174 44.6751 5.94075L44.3455 5.80593C44.3954 5.43642 44.5502 5.10186 44.8099 4.80225C45.0795 4.49266 45.4141 4.24299 45.8136 4.05324C46.213 3.86349 46.6375 3.76861 47.0869 3.76861C47.776 3.76861 48.3552 3.91342 48.8246 4.20304C49.304 4.49266 49.6685 4.88714 49.9182 5.38648C50.1778 5.88583 50.3226 6.46007 50.3526 7.10922C50.3726 7.44877 50.3726 7.74338 50.3526 7.99305C50.3226 8.6422 50.1728 9.22144 49.9032 9.73077C49.6335 10.2301 49.2441 10.6246 48.7347 10.9142C48.2254 11.1938 47.5912 11.3337 46.8322 11.3337ZM46.8322 10.2251C47.4614 10.2251 47.9607 10.0304 48.3303 9.64089C48.6998 9.2514 48.8945 8.68215 48.9145 7.93313C48.9245 7.83326 48.9295 7.71841 48.9295 7.58859C48.9295 7.45876 48.9245 7.32393 48.9145 7.18412C48.8945 6.42512 48.6998 5.85087 48.3303 5.46139C47.9707 5.0719 47.5163 4.87715 46.967 4.87715C46.3379 4.87715 45.8186 5.0719 45.4091 5.46139C44.9996 5.85087 44.7799 6.42512 44.75 7.18412C44.74 7.32393 44.735 7.45876 44.735 7.58859C44.735 7.71841 44.74 7.83326 44.75 7.93313C44.7799 8.68215 44.9797 9.2514 45.3492 9.64089C45.7187 10.0304 46.213 10.2251 46.8322 10.2251Z" fill="white"/>
<path opacity="0.5" d="M37.4432 11.334C36.9439 11.334 36.4895 11.2341 36.08 11.0344C35.6705 10.8346 35.341 10.565 35.0913 10.2254C34.8416 9.88589 34.7168 9.5014 34.7168 9.07196C34.7168 8.38287 34.9964 7.83359 35.5557 7.42413C36.115 7.01467 36.844 6.74502 37.7428 6.61519L39.9749 6.30061V5.86618C39.9749 5.38681 39.8351 5.0123 39.5554 4.74266C39.2858 4.47301 38.8414 4.33819 38.2222 4.33819C37.7728 4.33819 37.4083 4.42807 37.1286 4.60784C36.859 4.7876 36.6692 5.0173 36.5594 5.29693C36.4995 5.44673 36.3946 5.52163 36.2448 5.52163H35.5707C35.4608 5.52163 35.3759 5.49167 35.316 5.43175C35.2661 5.36184 35.2411 5.28195 35.2411 5.19207C35.2411 5.04226 35.296 4.85751 35.4059 4.6378C35.5257 4.41809 35.7055 4.20337 35.9452 3.99364C36.1849 3.78392 36.4895 3.60915 36.859 3.46933C37.2385 3.31953 37.6979 3.24463 38.2372 3.24463C38.8364 3.24463 39.3407 3.32452 39.7502 3.48431C40.1596 3.63412 40.4792 3.83885 40.7089 4.09851C40.9486 4.35816 41.1184 4.65278 41.2182 4.98234C41.3281 5.31191 41.383 5.64647 41.383 5.98602V10.8396C41.383 10.9395 41.3481 11.0244 41.2782 11.0943C41.2182 11.1542 41.1383 11.1842 41.0385 11.1842H40.3494C40.2395 11.1842 40.1546 11.1542 40.0947 11.0943C40.0348 11.0244 40.0048 10.9395 40.0048 10.8396V10.1955C39.875 10.3752 39.7002 10.555 39.4805 10.7348C39.2608 10.9046 38.9862 11.0494 38.6566 11.1692C38.327 11.2791 37.9226 11.334 37.4432 11.334ZM37.7578 10.2105C38.1673 10.2105 38.5418 10.1256 38.8813 9.9558C39.2209 9.77604 39.4855 9.5014 39.6753 9.13188C39.875 8.76237 39.9749 8.29798 39.9749 7.73872V7.31927L38.2372 7.57393C37.5281 7.6738 36.9938 7.84358 36.6343 8.08326C36.2747 8.31296 36.095 8.60757 36.095 8.9671C36.095 9.24673 36.1749 9.48142 36.3347 9.67117C36.5044 9.85094 36.7142 9.98576 36.9638 10.0756C37.2235 10.1655 37.4881 10.2105 37.7578 10.2105Z" fill="white"/>
<path opacity="0.5" d="M26.7078 14.0304C26.608 14.0304 26.5231 13.9955 26.4532 13.9256C26.3932 13.8657 26.3633 13.7858 26.3633 13.6859V3.73898C26.3633 3.63911 26.3932 3.55922 26.4532 3.49929C26.5231 3.42939 26.608 3.39443 26.7078 3.39443H27.3969C27.4968 3.39443 27.5767 3.42939 27.6366 3.49929C27.7065 3.55922 27.7415 3.63911 27.7415 3.73898V4.39811C27.9812 4.06855 28.3007 3.79391 28.7002 3.5742C29.0997 3.35448 29.599 3.24463 30.1982 3.24463C30.7575 3.24463 31.2319 3.3395 31.6214 3.52925C32.0208 3.71901 32.3454 3.97866 32.5951 4.30823C32.8547 4.6378 33.0495 5.0123 33.1793 5.43175C33.3091 5.8512 33.3791 6.30061 33.389 6.77998C33.399 6.93977 33.404 7.10954 33.404 7.28931C33.404 7.46907 33.399 7.63885 33.389 7.79864C33.3791 8.26802 33.3091 8.71743 33.1793 9.14686C33.0495 9.56631 32.8547 9.94082 32.5951 10.2704C32.3454 10.59 32.0208 10.8496 31.6214 11.0494C31.2319 11.2391 30.7575 11.334 30.1982 11.334C29.619 11.334 29.1296 11.2291 28.7302 11.0194C28.3407 10.7997 28.0211 10.53 27.7714 10.2105V13.6859C27.7714 13.7858 27.7415 13.8657 27.6815 13.9256C27.6216 13.9955 27.5367 14.0304 27.4269 14.0304H26.7078ZM29.8836 10.1206C30.403 10.1206 30.8074 10.0107 31.0971 9.79102C31.3967 9.56132 31.6114 9.26671 31.7412 8.90718C31.871 8.53766 31.9459 8.14318 31.9659 7.72374C31.9759 7.43412 31.9759 7.1445 31.9659 6.85488C31.9459 6.43543 31.871 6.04594 31.7412 5.68642C31.6114 5.3169 31.3967 5.02229 31.0971 4.80258C30.8074 4.57288 30.403 4.45803 29.8836 4.45803C29.3943 4.45803 28.9948 4.57288 28.6852 4.80258C28.3856 5.03228 28.1609 5.32689 28.0111 5.68642C27.8713 6.03596 27.7914 6.39548 27.7714 6.765C27.7614 6.92479 27.7564 7.11454 27.7564 7.33425C27.7564 7.55396 27.7614 7.7487 27.7714 7.91848C27.7814 8.26802 27.8613 8.61257 28.0111 8.95212C28.1709 9.29167 28.4056 9.5713 28.7152 9.79102C29.0248 10.0107 29.4143 10.1206 29.8836 10.1206Z" fill="white"/>
<path opacity="0.5" d="M21.3936 11.334C20.8044 11.334 20.305 11.2641 19.8956 11.1243C19.4961 10.9745 19.1715 10.7897 18.9218 10.57C18.6822 10.3403 18.5074 10.1056 18.3975 9.86592C18.2877 9.61624 18.2278 9.38655 18.2178 9.17682C18.2178 9.08694 18.2477 9.01703 18.3077 8.9671C18.3676 8.90718 18.4375 8.87722 18.5174 8.87722H19.2215C19.3113 8.87722 19.3862 8.90218 19.4462 8.95212C19.5061 8.99207 19.551 9.06697 19.581 9.17682C19.7008 9.55632 19.9305 9.82098 20.2701 9.97078C20.6096 10.1206 21.0241 10.1955 21.5134 10.1955C21.833 10.1955 22.1276 10.1555 22.3973 10.0756C22.6669 9.98576 22.8766 9.84594 23.0264 9.65619C23.1862 9.46644 23.2661 9.23175 23.2661 8.95212C23.2661 8.54266 23.1463 8.23306 22.9066 8.02334C22.6769 7.81362 22.3174 7.70876 21.828 7.70876H21.0041C20.9042 7.70876 20.8243 7.67879 20.7644 7.61887C20.7045 7.55895 20.6745 7.47906 20.6745 7.37919V6.97472C20.6745 6.88484 20.7045 6.80994 20.7644 6.75002C20.8243 6.68011 20.9042 6.64516 21.0041 6.64516H21.7381C22.1476 6.64516 22.4622 6.56526 22.6819 6.40547C22.9016 6.24568 23.0115 5.99102 23.0115 5.64148C23.0115 5.43175 22.9615 5.23201 22.8617 5.04226C22.7618 4.85251 22.592 4.69772 22.3523 4.57787C22.1226 4.44805 21.8031 4.38313 21.3936 4.38313C20.8144 4.38313 20.4049 4.483 20.1652 4.68274C19.9355 4.87249 19.7707 5.15711 19.6709 5.53661C19.6309 5.64647 19.581 5.72137 19.5211 5.76132C19.4711 5.80127 19.3962 5.82124 19.2964 5.82124H18.6222C18.5324 5.82124 18.4575 5.79627 18.3975 5.74634C18.3376 5.6964 18.3077 5.6265 18.3077 5.53661C18.3176 5.23701 18.3826 4.95238 18.5024 4.68274C18.6322 4.41309 18.822 4.16841 19.0717 3.9487C19.3313 3.72899 19.6509 3.55922 20.0304 3.43937C20.4199 3.30954 20.8743 3.24463 21.3936 3.24463C22.1426 3.24463 22.7318 3.35948 23.1613 3.58918C23.6007 3.81887 23.9103 4.1035 24.09 4.44305C24.2798 4.77262 24.3747 5.10218 24.3747 5.43175C24.3747 5.82124 24.3098 6.14581 24.1799 6.40547C24.0601 6.66513 23.8204 6.88484 23.4609 7.0646C23.9103 7.23438 24.2199 7.48904 24.3897 7.8286C24.5594 8.16815 24.6493 8.56263 24.6593 9.01204C24.6693 9.53136 24.5295 9.96079 24.2398 10.3003C23.9602 10.6399 23.5757 10.8996 23.0864 11.0793C22.597 11.2491 22.0328 11.334 21.3936 11.334Z" fill="white"/>
<path opacity="0.5" d="M12.5887 11.334C12.0894 11.334 11.635 11.2341 11.2255 11.0344C10.816 10.8346 10.4865 10.565 10.2368 10.2254C9.98714 9.88589 9.8623 9.5014 9.8623 9.07196C9.8623 8.38287 10.1419 7.83359 10.7012 7.42413C11.2605 7.01467 11.9895 6.74502 12.8883 6.61519L15.1204 6.30061V5.86618C15.1204 5.38681 14.9806 5.0123 14.7009 4.74266C14.4313 4.47301 13.9869 4.33819 13.3677 4.33819C12.9183 4.33819 12.5538 4.42807 12.2741 4.60784C12.0045 4.7876 11.8147 5.0173 11.7049 5.29693C11.645 5.44673 11.5401 5.52163 11.3903 5.52163H10.7162C10.6063 5.52163 10.5214 5.49167 10.4615 5.43175C10.4116 5.36184 10.3866 5.28195 10.3866 5.19207C10.3866 5.04226 10.4415 4.85751 10.5514 4.6378C10.6712 4.41809 10.851 4.20337 11.0907 3.99364C11.3304 3.78392 11.635 3.60915 12.0045 3.46933C12.384 3.31953 12.8434 3.24463 13.3827 3.24463C13.9819 3.24463 14.4862 3.32452 14.8957 3.48431C15.3051 3.63412 15.6247 3.83885 15.8544 4.09851C16.0941 4.35816 16.2639 4.65278 16.3637 4.98234C16.4736 5.31191 16.5285 5.64647 16.5285 5.98602V10.8396C16.5285 10.9395 16.4936 11.0244 16.4237 11.0943C16.3637 11.1542 16.2839 11.1842 16.184 11.1842H15.4949C15.385 11.1842 15.3001 11.1542 15.2402 11.0943C15.1803 11.0244 15.1503 10.9395 15.1503 10.8396V10.1955C15.0205 10.3752 14.8457 10.555 14.626 10.7348C14.4063 10.9046 14.1317 11.0494 13.8021 11.1692C13.4726 11.2791 13.0681 11.334 12.5887 11.334ZM12.9033 10.2105C13.3128 10.2105 13.6873 10.1256 14.0268 9.9558C14.3664 9.77604 14.631 9.5014 14.8208 9.13188C15.0205 8.76237 15.1204 8.29798 15.1204 7.73872V7.31927L13.3827 7.57393C12.6736 7.6738 12.1393 7.84358 11.7798 8.08326C11.4203 8.31296 11.2405 8.60757 11.2405 8.9671C11.2405 9.24673 11.3204 9.48142 11.4802 9.67117C11.65 9.85094 11.8597 9.98576 12.1093 10.0756C12.369 10.1655 12.6337 10.2105 12.9033 10.2105Z" fill="white"/>
<path opacity="0.5" d="M1.34455 11.1835C1.23469 11.1835 1.1498 11.1535 1.08988 11.0936C1.02996 11.0237 1 10.9388 1 10.8389V1.05679C1 0.946937 1.02996 0.862049 1.08988 0.802128C1.1498 0.73222 1.23469 0.697266 1.34455 0.697266H5.14954C5.88857 0.697266 6.52773 0.817108 7.06702 1.05679C7.61629 1.29648 8.04074 1.656 8.34034 2.13537C8.63995 2.60476 8.78975 3.19398 8.78975 3.90305C8.78975 4.61211 8.63995 5.20134 8.34034 5.67072C8.04074 6.1401 7.61629 6.49464 7.06702 6.73432C6.52773 6.97401 5.88857 7.09385 5.14954 7.09385H2.49803V10.8389C2.49803 10.9388 2.46308 11.0237 2.39317 11.0936C2.33325 11.1535 2.24836 11.1835 2.1385 11.1835H1.34455ZM2.48305 5.83551H5.07464C5.81367 5.83551 6.36794 5.67072 6.73745 5.34116C7.10696 5.01159 7.29172 4.53222 7.29172 3.90305C7.29172 3.28386 7.11196 2.80449 6.75243 2.46494C6.3929 2.12539 5.83364 1.95561 5.07464 1.95561H2.48305V5.83551Z" fill="white"/>
<g clip-path="url(#clip0_161_1740)">
<path d="M137.002 18.3502C136.733 20.052 136.133 21.662 135.204 23.1798C133.896 25.3153 132.122 27.005 129.883 28.2494C127.643 29.4935 125.21 30.1157 122.582 30.1157C119.955 30.1157 117.522 29.4935 115.282 28.2494C113.042 27.005 111.269 25.3153 109.961 23.1798C109.031 21.662 108.432 20.052 108.163 18.3502H109.439C109.611 19.2972 109.901 20.2216 110.308 21.1228C111.014 22.685 111.963 24.0305 113.155 25.1591C114.347 26.2876 115.768 27.1876 117.418 27.8587C119.067 28.5302 120.788 28.8657 122.582 28.8657C124.376 28.8657 126.098 28.5302 127.747 27.8587C129.396 27.1876 130.817 26.2876 132.009 25.1591C133.202 24.0305 134.15 22.685 134.856 21.1228C135.264 20.2216 135.553 19.2972 135.726 18.3502H137.002ZM134.453 18.3502C134.293 19.1339 134.043 19.8987 133.702 20.645C133.06 22.0513 132.2 23.2639 131.124 24.2824C130.048 25.3009 128.763 26.1109 127.27 26.7128C125.777 27.3146 124.214 27.6157 122.582 27.6157C120.951 27.6157 119.388 27.3146 117.895 26.7128C116.402 26.1109 115.117 25.3009 114.04 24.2824C112.964 23.2639 112.105 22.0513 111.462 20.645C111.122 19.8987 110.871 19.1339 110.711 18.3502H111.981C112.214 19.3842 112.623 20.3691 113.207 21.305C114.179 22.8616 115.496 24.0942 117.157 25.0028C118.818 25.9113 120.626 26.3657 122.582 26.3657C124.538 26.3657 126.347 25.9113 128.008 25.0028C129.669 24.0942 130.985 22.8616 131.957 21.305C132.542 20.3691 132.951 19.3842 133.183 18.3502H134.453ZM131.886 18.3502C131.765 18.7998 131.603 19.2405 131.402 19.6728C130.892 20.7668 130.21 21.7128 129.353 22.5117C128.497 23.3102 127.478 23.9439 126.298 24.4124C125.117 24.8813 123.879 25.1157 122.582 25.1157C121.286 25.1157 120.048 24.8813 118.867 24.4124C117.686 23.9439 116.668 23.3102 115.812 22.5117C114.955 21.7128 114.272 20.7668 113.763 19.6728C113.562 19.2405 113.4 18.7998 113.278 18.3502H114.569C114.755 18.9402 115.022 19.5083 115.369 20.055C116.115 21.2298 117.128 22.1583 118.407 22.8413C119.686 23.5242 121.078 23.8657 122.582 23.8657C124.087 23.8657 125.479 23.5242 126.758 22.8413C128.036 22.1583 129.049 21.2298 129.796 20.055C130.143 19.5083 130.409 18.9402 130.595 18.3502H131.886ZM129.282 18.3502C128.942 19.2298 128.375 20.0268 127.582 20.7405C126.193 21.9905 124.527 22.6157 122.582 22.6157C120.638 22.6157 118.971 21.9905 117.582 20.7405C116.789 20.0268 116.222 19.2298 115.882 18.3502H117.254C117.537 18.8939 117.939 19.3957 118.459 19.8554C119.599 20.862 120.973 21.3657 122.582 21.3657C124.191 21.3657 125.566 20.862 126.706 19.8554C127.226 19.3957 127.628 18.8939 127.91 18.3502H129.282ZM109.249 8.18942H107.999V0.115723H109.249V8.18942ZM111.749 8.18942H110.499V0.115723H111.749V8.18942ZM114.249 8.18942H112.999V0.115723H114.249V8.18942ZM116.749 8.18942H115.499V0.115723H116.749V8.18942ZM129.666 8.18942H128.416V0.115723H129.666V8.18942ZM132.166 8.18942H130.916V0.115723H132.166V8.18942ZM134.666 8.18942H133.416V0.115723H134.666V8.18942ZM137.166 8.18942H135.916V0.115723H137.166V8.18942Z" fill="white"/>
<path d="M146.609 18.3502V28.8657H145.359V18.3502H146.609ZM144.109 18.3502V28.8657H142.859V18.3502H144.109ZM141.609 18.3502V28.8657H140.359V18.3502H141.609ZM149.109 18.3502V28.8657H147.859V18.3502H149.109ZM164.991 18.3502C164.901 18.4431 164.81 18.5339 164.717 18.6228C163.756 19.5368 162.639 20.2457 161.366 20.7494C160.093 21.2528 158.75 21.5046 157.339 21.5046H150.082V20.2546H157.339C158.577 20.2546 159.763 20.0087 160.898 19.5168C161.628 19.1998 162.298 18.8109 162.906 18.3502H164.991ZM160.496 18.3502C159.506 18.7865 158.453 19.0046 157.339 19.0046H150.082V18.3502H160.496ZM140.359 8.18942V0.115723H157.339C159.19 0.115723 160.926 0.598686 162.547 1.56535C164.167 2.53165 165.458 3.82498 166.418 5.44535C166.941 6.32757 167.322 7.24202 167.56 8.18942H166.268C166.057 7.45794 165.748 6.74906 165.342 6.06165C164.497 4.63239 163.36 3.49239 161.93 2.64165C160.501 1.7909 158.97 1.36572 157.339 1.36572H141.609V8.18942H140.359ZM142.859 8.18942V2.61572H157.339C158.739 2.61572 160.058 2.98609 161.297 3.72683C162.535 4.46757 163.522 5.4572 164.257 6.69535C164.546 7.18165 164.778 7.67979 164.953 8.18942H163.629C163.289 7.37572 162.769 6.6172 162.069 5.91424C160.709 4.54868 159.132 3.86572 157.339 3.86572H144.109V8.18942H142.859ZM145.359 8.18942V5.11572H157.339C158.797 5.11572 160.082 5.67683 161.193 6.7998C161.628 7.23905 161.977 7.70239 162.242 8.18942H160.757C160.623 8.01424 160.473 7.84313 160.307 7.67646C159.439 6.80239 158.45 6.36572 157.339 6.36572H146.609V8.18942H145.359ZM147.859 8.18942V7.61572H157.339C157.993 7.61572 158.577 7.80683 159.089 8.18942H147.859Z" fill="white"/>
<path d="M111.687 10.3838H113.162V14.5642C113.162 15.1379 113.032 15.5546 112.773 15.8141C112.513 16.0737 112.096 16.2035 111.523 16.2035H109.637C109.064 16.2035 108.647 16.0737 108.387 15.8141C108.128 15.5546 107.998 15.1379 107.998 14.5642V10.3838H109.473V14.5642C109.473 14.892 109.637 15.056 109.965 15.056H111.195C111.523 15.056 111.687 14.892 111.687 14.5642V10.3838Z" fill="white"/>
<path d="M114.146 10.3838H117.588C118.162 10.3838 118.579 10.5136 118.838 10.7731C119.098 11.0327 119.227 11.4494 119.227 12.0232V12.8428C119.227 13.4166 119.098 13.8333 118.838 14.0928C118.579 14.3524 118.162 14.4822 117.588 14.4822H115.621V16.1215H114.146V10.3838ZM117.752 12.0232C117.752 11.6953 117.588 11.5314 117.26 11.5314H115.621V13.3346H117.26C117.588 13.3346 117.752 13.1707 117.752 12.8428V12.0232Z" fill="white"/>
<path d="M124.884 15.9986C123.605 16.1352 122.43 16.2035 121.359 16.2035C120.824 16.2035 120.43 16.0778 120.179 15.8264C119.927 15.5751 119.802 15.1816 119.802 14.6461V12.0232C119.802 11.4494 119.932 11.0327 120.191 10.7731C120.451 10.5136 120.867 10.3838 121.441 10.3838H124.392V11.5314H121.769C121.441 11.5314 121.277 11.6953 121.277 12.0232V14.6461C121.277 14.7718 121.314 14.8715 121.388 14.9453C121.462 15.0191 121.561 15.056 121.687 15.056C122.315 15.056 122.889 15.0423 123.408 15.015V13.8264H122.343V12.8428H124.884V15.9986Z" fill="white"/>
<path d="M125.703 10.3838H129.146C129.72 10.3838 130.136 10.5136 130.396 10.7731C130.655 11.0327 130.785 11.4494 130.785 12.0232V12.7609C130.785 13.2144 130.71 13.5669 130.56 13.8182C130.409 14.0696 130.17 14.2363 129.842 14.3182L130.867 16.1215H129.269L128.326 14.4002H127.179V16.1215H125.703V10.3838ZM129.31 12.0232C129.31 11.6953 129.146 11.5314 128.818 11.5314H127.179V13.2527H128.818C129.146 13.2527 129.31 13.0887 129.31 12.7609V12.0232Z" fill="white"/>
<path d="M132.63 16.1215H131.031L133.203 10.3838H134.843L137.015 16.1215H135.417L135.048 15.0969H132.998L132.63 16.1215ZM133.367 14.0314H134.679L134.023 12.1051L133.367 14.0314Z" fill="white"/>
<path d="M140.622 10.3838C141.239 10.3838 141.708 10.5436 142.027 10.8633C142.347 11.183 142.507 11.6516 142.507 12.269V14.2363C142.507 14.8538 142.347 15.3223 142.027 15.642C141.708 15.9617 141.239 16.1215 140.622 16.1215H137.425V10.3838H140.622ZM141.031 12.269C141.031 11.7772 140.785 11.5314 140.294 11.5314H138.9V14.974H140.294C140.785 14.974 141.031 14.7281 141.031 14.2363V12.269Z" fill="white"/>
<path d="M147.875 16.1215H143.326V10.3838H147.875V11.5314H144.802V12.6379H147.22V13.7854H144.802V14.974H147.875V16.1215Z" fill="white"/>
<path d="M150.99 10.3838H154.433C155.007 10.3838 155.423 10.5136 155.683 10.7731C155.942 11.0327 156.072 11.4494 156.072 12.0232V12.8428C156.072 13.4166 155.942 13.8333 155.683 14.0928C155.423 14.3524 155.007 14.4822 154.433 14.4822H152.466V16.1215H150.99V10.3838ZM154.597 12.0232C154.597 11.6953 154.433 11.5314 154.105 11.5314H152.466V13.3346H154.105C154.433 13.3346 154.597 13.1707 154.597 12.8428V12.0232Z" fill="white"/>
<path d="M156.81 10.3838H160.252C160.826 10.3838 161.243 10.5136 161.502 10.7731C161.762 11.0327 161.892 11.4494 161.892 12.0232V12.7609C161.892 13.2144 161.816 13.5669 161.666 13.8182C161.516 14.0696 161.277 14.2363 160.949 14.3182L161.974 16.1215H160.375L159.433 14.4002H158.285V16.1215H156.81V10.3838ZM160.416 12.0232C160.416 11.6953 160.252 11.5314 159.924 11.5314H158.285V13.2527H159.924C160.252 13.2527 160.416 13.0887 160.416 12.7609V12.0232Z" fill="white"/>
<path d="M166.4 11.9411C166.4 11.6132 166.236 11.4493 165.909 11.4493H164.515C164.187 11.4493 164.023 11.6132 164.023 11.9411V14.5641C164.023 14.892 164.187 15.0559 164.515 15.0559H165.909C166.236 15.0559 166.4 14.892 166.4 14.5641V11.9411ZM167.876 14.5641C167.876 15.1379 167.746 15.5545 167.486 15.8141C167.227 16.0736 166.81 16.2034 166.236 16.2034H164.187C163.613 16.2034 163.197 16.0736 162.937 15.8141C162.678 15.5545 162.548 15.1379 162.548 14.5641V11.9411C162.548 11.3673 162.678 10.9507 162.937 10.6911C163.197 10.4315 163.613 10.3018 164.187 10.3018H166.236C166.81 10.3018 167.227 10.4315 167.486 10.6911C167.746 10.9507 167.876 11.3673 167.876 11.9411V14.5641Z" fill="white"/>
</g>
<defs>
<clipPath id="clip0_161_1740">
<rect width="60" height="30" fill="white" transform="translate(107.999 0.115723)"/>
</clipPath>
</defs>
</svg>
