<svg width="31" height="30" viewBox="0 0 31 30" fill="none" xmlns="http://www.w3.org/2000/svg">
<path d="M15.3678 3C8.74082 3 3.36816 8.37265 3.36816 14.9996C3.36816 17.4242 4.08913 19.6858 5.32859 21.5722L3.78296 26.8066L9.21981 25.3005C11.0173 26.377 13.1209 26.9942 15.3678 26.9942C21.9947 26.9942 27.3673 21.6216 27.3673 14.9946C27.3673 8.37265 21.9947 3 15.3678 3Z" fill="#25D366"/>
<path d="M21.9599 18.2933C21.9451 18.1353 21.8512 17.997 21.708 17.9328C20.7402 17.4884 19.7674 17.044 18.7995 16.5995C18.6909 16.5502 18.5575 16.5748 18.4785 16.6687L17.165 18.1501C17.0613 18.2686 16.8983 18.3081 16.7551 18.2489C16.0737 17.9674 15.1552 17.4933 14.2268 16.6934C13.1157 15.7403 12.4639 14.7181 12.0985 14.0515C12.2812 13.928 12.78 13.5577 13.0022 12.8713C13.0022 12.8663 13.0071 12.8614 13.0071 12.8614C13.1454 12.4367 13.1157 11.9775 12.9627 11.5577C12.7009 10.8615 12.1775 9.51336 11.975 9.30595C11.9405 9.27139 11.901 9.23682 11.901 9.23682C11.7528 9.10349 11.5602 9.02942 11.3578 9.01954C11.2886 9.01461 11.2146 9.01461 11.1356 9.01461C10.9084 9.00967 10.706 9.00967 10.5578 9.02942C10.1381 9.08868 9.83191 9.37015 9.63932 9.60718C9.40723 9.88865 9.1307 10.3084 8.94799 10.8615C8.93317 10.9108 8.91836 10.9553 8.90354 11.0047C8.70108 11.7059 8.74059 12.4565 8.98255 13.1478C9.20971 13.7947 9.54056 14.565 10.0393 15.3798C10.8837 16.7674 11.8022 17.6267 12.4244 18.1945C13.1256 18.8414 13.9947 19.6365 15.3725 20.2982C16.6465 20.9105 17.802 21.1376 18.5773 21.2315C18.8933 21.2611 19.476 21.266 20.1427 21.0142C20.4488 20.8957 20.7056 20.7525 20.913 20.5994C21.4611 20.2093 21.8463 19.6217 21.9451 18.9599C21.9451 18.955 21.9451 18.9501 21.9451 18.9451C21.9796 18.6933 21.9747 18.476 21.9599 18.2933Z" fill="white"/>
</svg>
